<svg width="18" height="17" viewBox="0 0 18 17" fill="none" xmlns="http://www.w3.org/2000/svg">
<path d="M0.5 2.26883C0.5 1.79971 0.686358 1.3498 1.01808 1.01808C1.3498 0.686358 1.79971 0.5 2.26883 0.5H7.57532V16.4195H2.26883C1.79971 16.4195 1.3498 16.2331 1.01808 15.9014C0.686358 15.5697 0.5 15.1198 0.5 14.6506V2.26883ZM10.2394 0.5H15.5458C16.015 0.5 16.4649 0.686358 16.7966 1.01808C17.1283 1.3498 17.3147 1.79971 17.3147 2.26883V6.69091H10.2394V0.5ZM10.2394 10.2286H17.3147V14.6506C17.3147 15.1198 17.1283 15.5697 16.7966 15.9014C16.4649 16.2331 16.015 16.4195 15.5458 16.4195H10.2394V10.2286Z" stroke="#9FDC2A" stroke-linejoin="round"/>
</svg>
