<svg width="16" height="19" viewBox="0 0 16 19" fill="none" xmlns="http://www.w3.org/2000/svg">
<path d="M7.64976 0.5C0.104262 5.41364 -3.68496 18.0352 7.64976 18.0352C18.9845 18.0352 15.1952 5.41364 7.64976 0.5Z" stroke="#616161" stroke-linejoin="round"/>
<path d="M7.63229 5.84528C5.56992 7.47742 4.78237 9.08948 4.78237 11.5327C4.4773 11.1458 3.68893 10.2155 3.53588 9.81433C2.35086 12.1566 3.53588 16.1931 7.63229 16.0514C8.92542 16.0514 9.82257 15.7591 10.412 15.2728C12.8182 13.8591 12.4843 10.7735 11.5399 8.24111C11.5399 8.8208 10.5999 10.8654 10.3844 11.289C10.5404 8.8208 9.60007 7.47742 7.63229 5.84528Z" stroke="#616161" stroke-linejoin="round"/>
</svg>
