<svg width="19" height="19" viewBox="0 0 19 19" fill="none" xmlns="http://www.w3.org/2000/svg">
<path d="M6.28674 18.1831H2.60427C1.44211 18.1831 0.5 17.241 0.5 16.0788V3.97927C0.5 2.81711 1.44211 1.875 2.60427 1.875H14.1777C15.3399 1.875 16.282 2.81711 16.282 3.97927V8.1878" stroke="#00A63E"/>
<path d="M8.91602 15.0255L12.0724 18.1819L18.3852 11.8691" stroke="#00A63E"/>
<path d="M5.28711 1.83819V4.10547H11.5851V1.83819" stroke="#00A63E"/>
<mask id="path-4-inside-1_246_7807" fill="white">
<path d="M10.7476 2.10427C10.7476 1.82793 10.6932 1.5543 10.5874 1.299C10.4817 1.0437 10.3267 0.811725 10.1313 0.616326C9.93587 0.420926 9.7039 0.265927 9.4486 0.160178C9.1933 0.0544285 8.91967 -1.2079e-08 8.64333 0C8.36699 1.2079e-08 8.09336 0.0544285 7.83806 0.160178C7.58276 0.265927 7.35079 0.420926 7.15539 0.616326C6.95999 0.811725 6.80499 1.0437 6.69924 1.299C6.59349 1.5543 6.53906 1.82793 6.53906 2.10427L8.64333 2.10427H10.7476Z"/>
</mask>
<path d="M10.7476 2.10427C10.7476 1.82793 10.6932 1.5543 10.5874 1.299C10.4817 1.0437 10.3267 0.811725 10.1313 0.616326C9.93587 0.420926 9.7039 0.265927 9.4486 0.160178C9.1933 0.0544285 8.91967 -1.2079e-08 8.64333 0C8.36699 1.2079e-08 8.09336 0.0544285 7.83806 0.160178C7.58276 0.265927 7.35079 0.420926 7.15539 0.616326C6.95999 0.811725 6.80499 1.0437 6.69924 1.299C6.59349 1.5543 6.53906 1.82793 6.53906 2.10427L8.64333 2.10427H10.7476Z" stroke="#00A63E" stroke-width="2" mask="url(#path-4-inside-1_246_7807)"/>
<path d="M2.88867 6.81836H14.225" stroke="#00A63E"/>
<path d="M2.88867 10.0938H14.225" stroke="#00A63E"/>
<path d="M2.88867 13.1172H8.17898" stroke="#00A63E"/>
</svg>
