<svg width="19" height="20" viewBox="0 0 19 20" fill="none" xmlns="http://www.w3.org/2000/svg">
<path d="M9.06864 15.7271H3.35847C2.30726 15.7271 1.45508 14.8749 1.45508 13.8237V4.30678C1.45508 2.20436 3.15943 0.5 5.26186 0.5H12.8754C14.9778 0.5 16.6822 2.20435 16.6822 4.30678V11.5845" stroke="#4F39F6"/>
<path d="M10.3299 15.7266H9.07031" stroke="#4F39F6"/>
<path d="M16.875 5.37598C17.403 5.57752 17.7783 6.08775 17.7783 6.68652C17.7783 7.28519 17.4028 7.79445 16.875 7.99609V5.37598Z" stroke="#4F39F6" stroke-width="0.951695"/>
<path d="M1.40332 7.99609C0.875554 7.79443 0.5 7.28516 0.5 6.68652C0.500029 6.08777 0.875378 5.57753 1.40332 5.37598V7.99609Z" stroke="#4F39F6" stroke-width="0.951695"/>
<path d="M6.58203 16.1152V16.5674C6.58179 17.3422 5.95363 17.9707 5.17871 17.9707C4.40382 17.9707 3.77563 17.3422 3.77539 16.5674V16.1152H6.58203Z" stroke="#4F39F6"/>
<rect x="4.81055" y="10.5176" width="1.85509" height="1.85509" rx="0.927543" stroke="#4F39F6"/>
<rect x="11.584" y="10.5742" width="1.85509" height="1.85509" rx="0.927543" stroke="#4F39F6"/>
<path d="M9.19531 4.53125V8.93984" stroke="#4F39F6"/>
<path d="M1.76367 8.8125L16.6269 8.8125" stroke="#4F39F6"/>
<path d="M1.76367 4.7832L16.6269 4.7832" stroke="#4F39F6"/>
<path d="M12.8477 14.151V14.9654C12.8477 16.5848 13.7121 18.081 15.1149 18.8898C16.5178 18.081 17.3822 16.5848 17.3822 14.9654V14.151L17.2442 14.1051C16.4523 13.842 15.7261 13.4119 15.1149 12.8438C14.5037 13.4119 13.7776 13.842 12.9857 14.1051L12.8477 14.151Z" stroke="#4F39F6"/>
</svg>
