<svg width="20" height="20" viewBox="0 0 20 20" fill="none" xmlns="http://www.w3.org/2000/svg">
<path d="M0.5 9.57376C0.5 10.7653 0.7347 11.9453 1.1907 13.0461C1.6467 14.147 2.31507 15.1473 3.15764 15.9899C4.00022 16.8324 5.0005 17.5008 6.10138 17.9568C7.20226 18.4128 8.38217 18.6475 9.57376 18.6475C10.7653 18.6475 11.9453 18.4128 13.0461 17.9568C14.147 17.5008 15.1473 16.8324 15.9899 15.9899C16.8324 15.1473 17.5008 14.147 17.9568 13.0461C18.4128 11.9453 18.6475 10.7653 18.6475 9.57376C18.6475 8.38217 18.4128 7.20226 17.9568 6.10138C17.5008 5.0005 16.8324 4.00022 15.9899 3.15764C15.1473 2.31507 14.147 1.6467 13.0461 1.1907C11.9453 0.7347 10.7653 0.5 9.57376 0.5C8.38217 0.5 7.20226 0.7347 6.10138 1.1907C5.0005 1.6467 4.00022 2.31507 3.15764 3.15764C2.31507 4.00022 1.6467 5.0005 1.1907 6.10138C0.7347 7.20226 0.5 8.38217 0.5 9.57376Z" stroke="#FF5D00" stroke-linejoin="round"/>
<path d="M6.55112 9.57393C6.55112 10.3761 6.86978 11.1454 7.437 11.7126C8.00422 12.2799 8.77354 12.5985 9.57571 12.5985C10.3779 12.5985 11.1472 12.2799 11.7144 11.7126C12.2816 11.1454 12.6003 10.3761 12.6003 9.57393M6.55112 9.57393C6.55112 8.77176 6.86978 8.00244 7.437 7.43522C8.00422 6.868 8.77354 6.54934 9.57571 6.54934C10.3779 6.54934 11.1472 6.868 11.7144 7.43522C12.2816 8.00244 12.6003 8.77176 12.6003 9.57393M6.55112 9.57393H0.501953M12.6003 9.57393H18.6495M11.1888 6.95262L14.6167 2.11328M7.9626 12.1952L4.53473 17.0346M4.53473 2.11328L7.9626 6.95262M11.1888 12.1952L14.6167 17.0346" stroke="#FF5D00" stroke-linejoin="round"/>
</svg>
