<svg width="566" height="457" viewBox="0 0 566 457" fill="none" xmlns="http://www.w3.org/2000/svg">
<rect x="83.2291" y="204" width="428.333" height="90.6667" rx="28.3333" fill="white"/>
<path d="M152.444 261.154C150.796 261.154 149.277 260.865 147.887 260.288C146.517 259.689 145.319 258.854 144.292 257.785C143.265 256.715 142.474 255.453 141.918 253.998C141.361 252.543 141.083 250.949 141.083 249.216C141.083 247.483 141.361 245.9 141.918 244.467C142.474 243.033 143.255 241.792 144.26 240.744C145.287 239.674 146.485 238.851 147.854 238.273C149.245 237.695 150.775 237.406 152.444 237.406C154.283 237.406 155.942 237.77 157.418 238.498C158.894 239.225 160.103 240.252 161.044 241.578C162.007 242.883 162.595 244.424 162.809 246.2H158.701C158.445 244.467 157.749 243.14 156.615 242.22C155.482 241.279 154.102 240.808 152.476 240.808C151.042 240.808 149.791 241.151 148.721 241.835C147.651 242.52 146.817 243.493 146.218 244.755C145.619 245.996 145.319 247.473 145.319 249.184C145.319 250.938 145.619 252.457 146.218 253.741C146.817 255.003 147.662 255.988 148.753 256.694C149.844 257.4 151.096 257.753 152.508 257.753C154.091 257.753 155.449 257.293 156.583 256.373C157.717 255.431 158.434 254.105 158.734 252.393H162.873C162.617 254.148 162.007 255.688 161.044 257.014C160.103 258.341 158.894 259.368 157.418 260.095C155.942 260.801 154.283 261.154 152.444 261.154ZM175.585 261.154C173.917 261.154 172.376 260.865 170.964 260.288C169.552 259.71 168.322 258.886 167.274 257.817C166.247 256.747 165.444 255.485 164.867 254.03C164.31 252.554 164.032 250.938 164.032 249.184C164.032 246.852 164.524 244.809 165.509 243.055C166.493 241.279 167.851 239.899 169.584 238.915C171.339 237.909 173.328 237.406 175.553 237.406C177.821 237.406 179.821 237.909 181.554 238.915C183.309 239.899 184.678 241.279 185.662 243.055C186.646 244.83 187.138 246.884 187.138 249.216C187.138 250.971 186.849 252.575 186.272 254.03C185.716 255.485 184.913 256.747 183.865 257.817C182.838 258.886 181.619 259.71 180.207 260.288C178.794 260.865 177.254 261.154 175.585 261.154ZM175.553 257.753C177.008 257.753 178.281 257.389 179.372 256.661C180.485 255.934 181.351 254.928 181.972 253.645C182.592 252.34 182.902 250.842 182.902 249.152C182.902 247.483 182.592 246.028 181.972 244.788C181.373 243.525 180.517 242.552 179.404 241.867C178.313 241.161 177.029 240.808 175.553 240.808C174.098 240.808 172.815 241.161 171.702 241.867C170.611 242.552 169.766 243.515 169.167 244.755C168.568 245.996 168.268 247.462 168.268 249.152C168.268 250.864 168.568 252.361 169.167 253.645C169.787 254.928 170.643 255.934 171.734 256.661C172.847 257.389 174.12 257.753 175.553 257.753ZM189.351 260.833V237.727H193.523V260.833H189.351ZM191.341 260.833V257.528H204.883V260.833H191.341ZM207.286 260.833V237.727H211.458V260.833H207.286ZM209.275 260.833V257.528H222.818V260.833H209.275ZM225.221 260.833V237.727H229.393V260.833H225.221ZM227.21 260.833V257.528H241.844V260.833H227.21ZM227.21 250.564V247.323H240.721V250.564H227.21ZM227.21 241.033V237.727H241.491V241.033H227.21ZM254.541 261.154C252.102 261.154 249.994 260.673 248.219 259.71C246.443 258.726 245.074 257.357 244.111 255.602C243.148 253.827 242.667 251.751 242.667 249.377C242.667 247.002 243.148 244.927 244.111 243.151C245.074 241.354 246.411 239.952 248.122 238.947C249.834 237.92 251.824 237.406 254.091 237.406C255.931 237.406 257.579 237.749 259.033 238.433C260.51 239.097 261.697 240.017 262.596 241.193C263.516 242.349 264.072 243.696 264.264 245.237H260.092C259.879 243.868 259.237 242.787 258.167 241.996C257.097 241.204 255.76 240.808 254.156 240.808C252.701 240.808 251.428 241.151 250.337 241.835C249.245 242.52 248.4 243.493 247.801 244.755C247.202 246.018 246.903 247.526 246.903 249.28C246.903 251.077 247.202 252.618 247.801 253.902C248.422 255.164 249.31 256.127 250.465 256.79C251.642 257.453 253.075 257.785 254.765 257.785C256.07 257.785 257.194 257.624 258.135 257.303C259.076 256.961 259.836 256.458 260.413 255.795L264.425 257.367C263.205 258.608 261.793 259.55 260.189 260.191C258.584 260.833 256.701 261.154 254.541 261.154ZM260.253 257.367V250.628L261.248 251.623H254.733V248.35H264.425V257.367H260.253ZM267.014 260.833V237.727H271.186V260.833H267.014ZM269.003 260.833V257.528H283.637V260.833H269.003ZM269.003 250.564V247.323H282.514V250.564H269.003ZM269.003 241.033V237.727H283.284V241.033H269.003ZM300.461 261.122C297.551 261.122 295.23 260.459 293.497 259.132C291.785 257.785 290.78 255.891 290.48 253.452H294.492C294.684 254.864 295.316 255.966 296.385 256.758C297.455 257.528 298.856 257.913 300.589 257.913C302.023 257.913 303.114 257.656 303.863 257.143C304.633 256.608 305.018 255.87 305.018 254.928C305.018 254.094 304.783 253.42 304.312 252.907C303.841 252.393 303.05 251.976 301.937 251.655L297.765 250.404C295.647 249.762 294.085 248.917 293.08 247.868C292.096 246.82 291.604 245.504 291.604 243.921C291.604 242.595 291.946 241.439 292.631 240.455C293.315 239.471 294.278 238.712 295.519 238.177C296.781 237.642 298.247 237.374 299.915 237.374C302.483 237.374 304.526 238.006 306.045 239.268C307.585 240.509 308.462 242.199 308.676 244.338H304.665C304.43 243.055 303.895 242.113 303.06 241.514C302.226 240.894 301.103 240.584 299.691 240.584C298.45 240.584 297.466 240.83 296.738 241.322C296.011 241.814 295.647 242.488 295.647 243.343C295.647 244.049 295.861 244.648 296.289 245.141C296.738 245.633 297.562 246.061 298.76 246.424L302.996 247.708C305.114 248.328 306.655 249.173 307.617 250.243C308.58 251.313 309.061 252.671 309.061 254.319C309.061 256.501 308.302 258.18 306.783 259.357C305.285 260.534 303.178 261.122 300.461 261.122ZM316.867 260.833V241.033H309.197V237.727H328.709V241.033H321.039V260.833H316.867ZM339.754 261.154C336.631 261.154 334.267 260.266 332.662 258.491C331.057 256.715 330.255 254.169 330.255 250.853V237.727H334.427V251.463C334.427 253.581 334.898 255.164 335.839 256.212C336.78 257.239 338.096 257.753 339.786 257.753C341.476 257.753 342.792 257.239 343.734 256.212C344.675 255.164 345.146 253.591 345.146 251.495V237.727H349.318V250.885C349.318 254.18 348.505 256.715 346.879 258.491C345.274 260.266 342.899 261.154 339.754 261.154ZM354.648 260.833V257.496H360.617C362.371 257.496 363.869 257.143 365.11 256.437C366.351 255.731 367.292 254.747 367.934 253.484C368.597 252.222 368.929 250.778 368.929 249.152C368.929 247.547 368.597 246.135 367.934 244.916C367.292 243.696 366.351 242.755 365.11 242.092C363.89 241.407 362.393 241.065 360.617 241.065H354.712V237.727H360.617C363.142 237.727 365.345 238.198 367.228 239.139C369.111 240.081 370.565 241.418 371.592 243.151C372.641 244.862 373.165 246.884 373.165 249.216C373.165 251.548 372.641 253.591 371.592 255.346C370.544 257.079 369.078 258.426 367.196 259.389C365.334 260.352 363.152 260.833 360.649 260.833H354.648ZM352.113 260.833V237.727H356.285V260.833H352.113ZM375.375 260.833V237.727H379.547V260.833H375.375ZM377.365 260.833V257.528H391.999V260.833H377.365ZM377.365 250.564V247.323H390.876V250.564H377.365ZM377.365 241.033V237.727H391.646V241.033H377.365ZM394.627 260.833V237.727H399.793L411.057 257.817L409.87 258.106V237.727H413.914V260.833H408.747L397.483 240.744L398.67 240.455V260.833H394.627ZM423.496 260.833V241.033H415.827V237.727H435.338V241.033H427.668V260.833H423.496ZM444.997 261.122C442.087 261.122 439.766 260.459 438.033 259.132C436.322 257.785 435.316 255.891 435.017 253.452H439.028C439.221 254.864 439.852 255.966 440.921 256.758C441.991 257.528 443.392 257.913 445.125 257.913C446.559 257.913 447.65 257.656 448.399 257.143C449.169 256.608 449.554 255.87 449.554 254.928C449.554 254.094 449.319 253.42 448.848 252.907C448.377 252.393 447.586 251.976 446.473 251.655L442.301 250.404C440.183 249.762 438.622 248.917 437.616 247.868C436.632 246.82 436.14 245.504 436.14 243.921C436.14 242.595 436.482 241.439 437.167 240.455C437.851 239.471 438.814 238.712 440.055 238.177C441.317 237.642 442.783 237.374 444.451 237.374C447.019 237.374 449.062 238.006 450.581 239.268C452.121 240.509 452.999 242.199 453.212 244.338H449.201C448.966 243.055 448.431 242.113 447.596 241.514C446.762 240.894 445.639 240.584 444.227 240.584C442.986 240.584 442.002 240.83 441.274 241.322C440.547 241.814 440.183 242.488 440.183 243.343C440.183 244.049 440.397 244.648 440.825 245.141C441.274 245.633 442.098 246.061 443.296 246.424L447.532 247.708C449.65 248.328 451.191 249.173 452.153 250.243C453.116 251.313 453.598 252.671 453.598 254.319C453.598 256.501 452.838 258.18 451.319 259.357C449.821 260.534 447.714 261.122 444.997 261.122Z" fill="#9747FF"/>
<path d="M296.375 398.146C297.347 397.55 298.591 397.593 299.524 398.273L305.751 402.816L313.462 402.803L313.692 402.812C314.828 402.901 315.81 403.667 316.164 404.766L318.531 412.102L324.778 416.622C325.775 417.344 326.192 418.627 325.81 419.798L323.413 427.125L325.81 434.452C326.192 435.623 325.775 436.906 324.778 437.628L318.531 442.147L316.164 449.484C315.786 450.656 314.694 451.45 313.462 451.447L305.751 451.433L299.524 455.977C298.529 456.702 297.18 456.702 296.185 455.977L289.957 451.433L282.246 451.447C281.015 451.45 279.922 450.656 279.544 449.484L277.176 442.147L270.931 437.628C269.933 436.906 269.516 435.622 269.899 434.452L272.295 427.125L269.899 419.798C269.516 418.628 269.933 417.344 270.931 416.622L277.176 412.102L279.544 404.766C279.922 403.594 281.015 402.8 282.246 402.803L289.957 402.816L296.185 398.273L296.375 398.146ZM292.547 407.94C292.061 408.295 291.474 408.486 290.872 408.485L284.302 408.473L282.285 414.725C282.1 415.298 281.737 415.796 281.249 416.149L275.927 420L277.969 426.244C278.156 426.816 278.156 427.434 277.969 428.006L275.927 434.249L281.249 438.101L281.427 438.239C281.826 438.579 282.124 439.024 282.285 439.525L284.302 445.776L290.872 445.765C291.474 445.764 292.061 445.955 292.547 446.31L297.854 450.181L303.161 446.31L303.348 446.184C303.794 445.909 304.309 445.764 304.836 445.765L311.406 445.776L313.424 439.525L313.501 439.314C313.701 438.83 314.032 438.409 314.459 438.101L319.78 434.248L317.739 428.006C317.552 427.434 317.552 426.816 317.739 426.244L319.78 420.001L314.459 416.149C313.971 415.796 313.609 415.298 313.424 414.725L311.406 408.473L304.836 408.485C304.234 408.486 303.648 408.295 303.161 407.94L297.854 404.068L292.547 407.94ZM306.476 418.48C307.582 417.374 309.376 417.374 310.483 418.48C311.589 419.587 311.589 421.382 310.483 422.488L297.201 435.77C296.095 436.876 294.301 436.876 293.195 435.77L286.554 429.129C285.447 428.022 285.447 426.228 286.554 425.121C287.66 424.015 289.454 424.015 290.561 425.121L295.197 429.758L306.476 418.48Z" fill="white"/>
<path d="M297.146 311.667L297.146 378.25" stroke="white" stroke-width="5" stroke-linecap="round" stroke-linejoin="round"/>
<path d="M318.375 23.959C318.959 23.959 319.52 24.192 319.933 24.6055C320.347 25.0189 320.58 25.5793 320.58 26.1641V34.1328C320.575 37.0051 319.554 39.7838 317.699 41.9766C315.883 44.1232 313.38 45.5711 310.619 46.082V57.8262H316.595V62.2363H300.232V57.8262H306.209V46.082C303.447 45.5711 300.945 44.1232 299.129 41.9766C297.274 39.7838 296.253 37.0051 296.248 34.1328V26.1641C296.248 25.5793 296.481 25.0189 296.894 24.6055C297.308 24.192 297.868 23.959 298.453 23.959H318.375ZM300.658 34.1328C300.658 36.1899 301.475 38.1626 302.929 39.6172C304.384 41.0718 306.357 41.8887 308.414 41.8887C310.471 41.8887 312.444 41.0718 313.898 39.6172C315.353 38.1626 316.17 36.1899 316.17 34.1328V28.3691H300.658V34.1328Z" fill="white" stroke="white" stroke-width="0.425"/>
<path d="M298.453 4.03711C299.038 4.03721 299.598 4.27022 300.012 4.68359C300.425 5.09704 300.657 5.65755 300.657 6.24219V18.4082H296.248V8.44727H290.696V23.7666L290.552 23.8154L289.193 24.2686L289.194 24.2695C289.127 24.294 288.007 24.7098 286.906 25.8926C285.809 27.0707 284.72 29.0215 284.72 32.1406V57.8262H292.688V62.2363H282.516C281.931 62.2363 281.37 62.0033 280.956 61.5898C280.543 61.1764 280.311 60.6158 280.311 60.0312V32.1533L280.292 31.7266C280.234 29.5922 280.731 27.4766 281.737 25.5879C282.792 23.6093 284.365 21.9564 286.287 20.8047V6.24219C286.287 5.65761 286.519 5.09702 286.933 4.68359C287.346 4.27013 287.907 4.03711 288.492 4.03711H298.453Z" fill="white" stroke="white" stroke-width="0.425"/>
<path d="M55.6041 23.108V36.3892M34.9305 9.82673C33.0903 8.95319 31.0787 8.5 29.0416 8.5C27.0046 8.5 24.993 8.95319 23.1527 9.82673L5.37975 18.1594C1.51225 19.9709 1.51225 26.245 5.37975 28.0566L23.1501 36.3892C24.9907 37.2632 27.0027 37.7166 29.0403 37.7166C31.0779 37.7166 33.0899 37.2632 34.9305 36.3892L52.7035 28.0566C56.571 26.245 56.571 19.9709 52.7035 18.1594L34.9305 9.82673Z" stroke="white" stroke-width="4.95833" stroke-linecap="round" stroke-linejoin="round"/>
<path d="M10.4479 31.0768V44.69C10.4479 52.441 22.9163 56.3111 29.0416 56.3111C35.1669 56.3111 47.6354 52.441 47.6354 44.69V31.0768" stroke="white" stroke-width="4.95833" stroke-linecap="round" stroke-linejoin="round"/>
<path d="M555.068 8.5H537.802C533.401 8.5 529.833 12.0677 529.833 16.4688V49.6719C529.833 54.0729 533.401 57.6406 537.802 57.6406H555.068C559.469 57.6406 563.036 54.0729 563.036 49.6719V16.4688C563.036 12.0677 559.469 8.5 555.068 8.5Z" stroke="white" stroke-width="4.95833" stroke-linecap="round" stroke-linejoin="round"/>
<path d="M543.779 48.3438H549.091" stroke="white" stroke-width="4.95833" stroke-linecap="round" stroke-linejoin="round"/>
<path d="M156.719 5.3125H179.031C187.531 5.3125 194.438 12.2188 194.438 20.7188V43.0313C194.437 47.1172 192.814 51.0359 189.925 53.9251C187.036 56.8143 183.117 58.4375 179.031 58.4375H156.719C148.219 58.4375 141.312 51.5313 141.312 43.0313V20.7188C141.312 16.6328 142.936 12.7141 145.825 9.82489C148.714 6.93565 152.633 5.3125 156.719 5.3125ZM156.187 10.625C153.651 10.625 151.219 11.6325 149.426 13.4258C147.632 15.2191 146.625 17.6514 146.625 20.1875V43.5625C146.625 48.8484 150.902 53.125 156.187 53.125H179.562C182.099 53.125 184.531 52.1175 186.324 50.3242C188.118 48.5309 189.125 46.0986 189.125 43.5625V20.1875C189.125 14.9016 184.848 10.625 179.562 10.625H156.187ZM181.82 14.6094C182.701 14.6094 183.545 14.9592 184.168 15.5819C184.791 16.2046 185.141 17.0491 185.141 17.9297C185.141 18.8103 184.791 19.6548 184.168 20.2775C183.545 20.9002 182.701 21.25 181.82 21.25C180.94 21.25 180.095 20.9002 179.472 20.2775C178.85 19.6548 178.5 18.8103 178.5 17.9297C178.5 17.0491 178.85 16.2046 179.472 15.5819C180.095 14.9592 180.94 14.6094 181.82 14.6094ZM167.875 18.5938C171.397 18.5938 174.776 19.993 177.266 22.4837C179.757 24.9745 181.156 28.3526 181.156 31.875C181.156 35.3974 179.757 38.7755 177.266 41.2663C174.776 43.757 171.397 45.1563 167.875 45.1562C164.353 45.1563 160.974 43.757 158.484 41.2663C155.993 38.7755 154.594 35.3974 154.594 31.875C154.594 28.3526 155.993 24.9745 158.484 22.4837C160.974 19.993 164.353 18.5938 167.875 18.5938ZM167.875 23.9062C165.762 23.9062 163.735 24.7458 162.24 26.2402C160.746 27.7347 159.906 29.7616 159.906 31.875C159.906 33.9884 160.746 36.0153 162.24 37.5098C163.735 39.0042 165.762 39.8438 167.875 39.8438C169.988 39.8438 172.015 39.0042 173.51 37.5098C175.004 36.0153 175.844 33.9884 175.844 31.875C175.844 29.7616 175.004 27.7347 173.51 26.2402C172.015 24.7458 169.988 23.9062 167.875 23.9062Z" fill="white"/>
<path d="M425.187 3.20898C432.795 3.20898 437.053 7.15508 438.457 8.65918L438.699 8.92578L438.703 8.92871C440.542 11.0302 442.322 13.7107 442.748 18.7178L442.792 19.252C442.868 20.277 442.892 21.2964 442.884 22.2861C443.22 22.2286 443.645 22.1748 444.12 22.1748C446.577 22.1748 448.626 23.5321 449.441 25.6885H449.442C450.036 27.2287 449.932 28.914 449.16 30.3525C448.637 31.3447 447.925 32.0657 447.061 32.7305C446.213 33.3824 445.173 34.0119 444.02 34.7754L444.008 34.7832C443.819 34.9013 443.799 34.9736 443.794 34.9922C443.785 35.0301 443.781 35.1211 443.859 35.333C445.328 38.5839 447.63 40.3149 449.75 41.6133C450.788 42.2493 451.86 42.8241 452.687 43.3936C453.525 43.9707 454.247 44.6273 454.574 45.5195H454.575C455.133 47.0067 454.737 48.6422 453.443 49.9717L453.444 49.9727C452.454 50.9977 451.065 51.6435 449.894 52.084C449.304 52.3056 448.748 52.4825 448.317 52.626C448.097 52.6988 447.914 52.7622 447.767 52.8193C447.645 52.8665 447.569 52.9024 447.525 52.9268C447.489 52.9685 447.44 53.0492 447.37 53.209C447.329 53.3033 447.287 53.4056 447.236 53.5303C447.187 53.6512 447.131 53.7865 447.066 53.9287C446.796 54.5116 446.371 55.2 445.495 55.8076L445.492 55.8086C444.14 56.7339 442.644 56.76 441.242 56.8223H441.239C439.174 56.9011 437.954 57.1132 437.067 57.4102C436.182 57.7062 435.606 58.0918 434.795 58.5947H434.794C432.767 59.8499 429.924 61.6035 425.187 61.6035C420.449 61.6035 417.607 59.8499 415.579 58.5947H415.578C414.767 58.0918 414.191 57.7062 413.307 57.4102C412.42 57.1132 411.199 56.9011 409.134 56.8223V56.8213C407.713 56.7896 406.23 56.7314 404.881 55.8086L404.874 55.8047C404.014 55.1958 403.599 54.5072 403.331 53.9287C403.266 53.7875 403.21 53.6527 403.16 53.5332C403.109 53.4104 403.067 53.3081 403.025 53.2158C402.949 53.0502 402.894 52.9712 402.855 52.9307C402.812 52.9063 402.734 52.8687 402.607 52.8193C402.459 52.7623 402.276 52.6988 402.057 52.626C401.625 52.4825 401.069 52.3056 400.48 52.084C399.308 51.6435 397.919 50.9977 396.929 49.9727V49.9717C395.637 48.6433 395.243 47.0094 395.798 45.5234H395.797C396.124 44.6298 396.845 43.9718 397.682 43.3936C398.507 42.8238 399.575 42.2496 400.611 41.6133C402.727 40.3152 405.029 38.5838 406.514 35.333C406.593 35.1174 406.587 35.0375 406.579 35.0068C406.575 34.9891 406.553 34.9126 406.35 34.7725C404.062 33.258 402.278 32.3444 401.213 30.3516C400.443 28.9154 400.337 27.1991 400.933 25.6885C401.75 23.4943 403.835 22.1748 406.253 22.1748C406.738 22.1748 407.157 22.2209 407.5 22.2783C407.509 21.1237 407.543 19.9276 407.625 18.7295V18.7207C408.051 13.7118 409.831 11.0306 411.67 8.92871L411.674 8.92578C412.768 7.69883 417.071 3.20901 425.187 3.20898ZM425.182 7.41602C418.99 7.35441 415.645 10.8291 414.786 11.749C413.531 13.1892 412.135 15.0679 411.797 19.0938V19.0967C411.609 21.1662 411.671 22.5639 411.735 27.0439L411.745 27.7129L411.098 27.5449C408.875 26.9692 407.785 26.6766 407.168 26.5264C406.573 26.3815 406.472 26.3818 406.221 26.3818C405.82 26.3819 405.107 26.4824 404.85 27.1641L404.851 27.165C404.78 27.3561 404.749 27.5601 404.761 27.7637C404.773 27.9651 404.827 28.1621 404.918 28.3418C405.016 28.5194 405.055 28.599 405.127 28.6963C405.194 28.7864 405.3 28.9013 405.523 29.082C405.866 29.3611 406.444 29.762 407.486 30.4375L408.693 31.2109L408.697 31.2129C409.593 31.7921 410.265 32.59 410.59 33.5732C410.915 34.5573 410.876 35.6814 410.429 36.8867L410.415 36.9199C408.017 42.2098 404.061 44.4456 401.571 45.9141L401.562 45.9199C401.166 46.1415 400.706 46.4066 400.32 46.6533C400.161 46.7555 400.019 46.8532 399.901 46.9395L399.951 46.9951L399.961 47.0049C400.453 47.5232 401.327 47.8875 402.388 48.2656C403.263 48.5776 404.267 48.8986 405.062 49.3457L405.389 49.5449L405.418 49.5654L405.445 49.5889C406.261 50.3181 406.619 50.9739 406.848 51.498C406.971 51.7806 407.022 51.9306 407.104 52.0938C407.155 52.1955 407.196 52.2528 407.235 52.29L407.275 52.3213L407.276 52.3232C407.388 52.4002 407.582 52.4727 407.933 52.5244C408.278 52.5754 408.722 52.5993 409.295 52.6152H409.303C411.576 52.7119 413.145 52.9633 414.405 53.3555C415.354 53.6508 416.113 54.0223 416.849 54.4482L417.583 54.8916L417.584 54.8926C419.804 56.2839 421.52 56.9049 422.76 57.1816C423.997 57.4577 424.772 57.3965 425.187 57.3965C425.602 57.3965 426.378 57.4571 427.619 57.1846C428.864 56.9113 430.588 56.298 432.824 54.9219C433.807 54.3097 434.743 53.7727 436.011 53.375C437.274 52.979 438.842 52.7285 441.096 52.6475C441.68 52.615 442.125 52.5923 442.478 52.5439C442.836 52.495 443.024 52.4284 443.129 52.3555L443.131 52.3535C443.18 52.3198 443.229 52.2655 443.295 52.1309C443.376 51.964 443.42 51.8217 443.544 51.5332C443.771 51.0049 444.13 50.347 444.964 49.6172L444.987 49.5967L445.013 49.5801C445.832 49.0226 447.002 48.6541 448.006 48.2979C449.063 47.9228 449.935 47.5599 450.429 47.0498C450.446 47.0287 450.464 47.0065 450.482 46.9844C450.363 46.8991 450.219 46.802 450.056 46.6992C449.664 46.4526 449.211 46.1919 448.802 45.9463L447.806 45.3555C445.348 43.8714 442.057 41.581 439.958 36.9521L439.944 36.9189C439.497 35.7137 439.458 34.5895 439.783 33.6055C440.108 32.6223 440.781 31.8243 441.676 31.2451C443.498 30.0465 444.364 29.4491 444.821 29.0752C445.044 28.8931 445.15 28.7796 445.217 28.6904C445.289 28.5947 445.329 28.5148 445.427 28.3359L445.432 28.3271L445.437 28.3193C445.634 27.9898 445.664 27.586 445.497 27.1816L445.494 27.1738L445.491 27.167C445.234 26.4811 444.549 26.3818 444.12 26.3818C443.871 26.3818 443.777 26.3813 443.186 26.5264C442.571 26.677 441.482 26.9692 439.243 27.5449L438.597 27.7109L438.607 27.0439C438.671 22.5639 438.732 21.1662 438.544 19.0967V19.0938C438.205 15.056 436.802 13.1781 435.544 11.7363V11.7354C434.714 10.8144 431.37 7.35454 425.192 7.41602H425.182Z" fill="white" stroke="white" stroke-width="1.02"/>
<path d="M24.8541 80.0417V125.375" stroke="white" stroke-width="5" stroke-linecap="round" stroke-linejoin="round"/>
<path d="M168.229 80.7499V126.083" stroke="white" stroke-width="5" stroke-linecap="round" stroke-linejoin="round"/>
<path d="M297.146 80.7499V126.083" stroke="white" stroke-width="5" stroke-linecap="round" stroke-linejoin="round"/>
<path d="M297.146 126.083L297.146 192.667" stroke="white" stroke-width="5" stroke-linecap="round" stroke-linejoin="round"/>
<path d="M424.646 80.7499V126.083" stroke="white" stroke-width="5" stroke-linecap="round" stroke-linejoin="round"/>
<path d="M25.1458 126.083H543.646L543.646 80.7499" stroke="white" stroke-width="5" stroke-linecap="round" stroke-linejoin="round"/>
</svg>
