<svg width="345" height="750" viewBox="0 0 345 750" fill="none" xmlns="http://www.w3.org/2000/svg">
<g clip-path="url(#clip0_531_24357)">
<rect width="344.404" height="749.635" rx="22.8541" fill="white"/>
<path d="M155.926 108.832C155.926 106.926 156.505 105.064 157.585 103.493C158.666 101.922 160.197 100.715 161.978 100.033C163.758 99.3505 165.704 99.2242 167.557 99.6708C169.411 100.117 171.086 101.116 172.36 102.534C172.45 102.63 172.558 102.706 172.679 102.759C172.799 102.811 172.929 102.838 173.061 102.838C173.192 102.838 173.322 102.811 173.443 102.759C173.563 102.706 173.672 102.63 173.762 102.534C175.032 101.106 176.707 100.1 178.564 99.6477C180.42 99.1958 182.371 99.32 184.155 100.004C185.939 100.688 187.473 101.899 188.552 103.476C189.631 105.053 190.204 106.922 190.195 108.832C190.195 112.756 187.625 115.686 185.055 118.256L175.645 127.36C175.325 127.727 174.932 128.021 174.49 128.224C174.048 128.427 173.568 128.533 173.082 128.536C172.596 128.539 172.114 128.439 171.67 128.242C171.226 128.045 170.828 127.755 170.504 127.392L161.067 118.256C158.497 115.686 155.926 112.773 155.926 108.832Z" stroke="#6A6A6A" stroke-width="3.42687" stroke-linecap="round" stroke-linejoin="round"/>
<path d="M66.1459 164.576L61.6888 148.999H65.2864L67.8648 159.823H67.9941L70.8387 148.999H73.9191L76.7561 159.845H76.893L79.4714 148.999H83.069L78.6119 164.576H75.4022L72.4359 154.392H72.3143L69.3556 164.576H66.1459ZM88.5722 164.804C87.3705 164.804 86.3361 164.561 85.469 164.074C84.607 163.582 83.9427 162.888 83.4763 161.99C83.0098 161.088 82.7765 160.02 82.7765 158.788C82.7765 157.586 83.0098 156.532 83.4763 155.624C83.9427 154.716 84.5994 154.009 85.4462 153.502C86.298 152.995 87.2969 152.741 88.4429 152.741C89.2136 152.741 89.9311 152.866 90.5954 153.114C91.2647 153.358 91.8478 153.725 92.3447 154.217C92.8467 154.709 93.2371 155.327 93.516 156.073C93.7949 156.813 93.9343 157.68 93.9343 158.674V159.564H84.0695V157.556H90.8844C90.8844 157.089 90.783 156.676 90.5801 156.316C90.3773 155.956 90.0959 155.675 89.7359 155.472C89.3809 155.264 88.9677 155.16 88.4961 155.16C88.0043 155.16 87.5682 155.274 87.1879 155.502C86.8127 155.725 86.5186 156.027 86.3056 156.407C86.0927 156.783 85.9837 157.201 85.9786 157.662V159.572C85.9786 160.15 86.0851 160.649 86.298 161.07C86.5161 161.491 86.8228 161.815 87.2183 162.043C87.6139 162.272 88.0829 162.386 88.6254 162.386C88.9854 162.386 89.315 162.335 89.6142 162.234C89.9134 162.132 90.1694 161.98 90.3824 161.777C90.5954 161.574 90.7576 161.326 90.8692 161.032L93.8659 161.23C93.7138 161.95 93.4019 162.578 92.9304 163.116C92.4639 163.648 91.8605 164.064 91.1202 164.363C90.3849 164.657 89.5356 164.804 88.5722 164.804ZM99.0211 148.999V164.576H95.781V148.999H99.0211ZM106.627 164.804C105.431 164.804 104.401 164.551 103.539 164.044C102.682 163.532 102.023 162.822 101.562 161.914C101.106 161.006 100.877 159.962 100.877 158.78C100.877 157.584 101.108 156.534 101.569 155.632C102.036 154.724 102.698 154.017 103.555 153.51C104.412 152.997 105.431 152.741 106.612 152.741C107.631 152.741 108.524 152.927 109.289 153.297C110.055 153.667 110.661 154.187 111.107 154.856C111.553 155.525 111.799 156.311 111.845 157.214H108.787C108.701 156.631 108.473 156.162 108.103 155.807C107.738 155.447 107.259 155.267 106.665 155.267C106.163 155.267 105.725 155.403 105.35 155.677C104.979 155.946 104.69 156.339 104.483 156.856C104.275 157.373 104.171 158 104.171 158.735C104.171 159.48 104.272 160.114 104.475 160.636C104.683 161.159 104.974 161.557 105.35 161.83C105.725 162.104 106.163 162.241 106.665 162.241C107.036 162.241 107.368 162.165 107.662 162.013C107.961 161.861 108.207 161.64 108.4 161.351C108.597 161.057 108.727 160.705 108.787 160.294H111.845C111.794 161.186 111.551 161.972 111.115 162.652C110.684 163.326 110.088 163.854 109.327 164.234C108.567 164.614 107.667 164.804 106.627 164.804ZM118.93 164.804C117.749 164.804 116.727 164.553 115.865 164.051C115.008 163.544 114.346 162.839 113.88 161.937C113.413 161.029 113.18 159.977 113.18 158.78C113.18 157.574 113.413 156.519 113.88 155.616C114.346 154.709 115.008 154.004 115.865 153.502C116.727 152.995 117.749 152.741 118.93 152.741C120.112 152.741 121.131 152.995 121.988 153.502C122.85 154.004 123.514 154.709 123.981 155.616C124.447 156.519 124.68 157.574 124.68 158.78C124.68 159.977 124.447 161.029 123.981 161.937C123.514 162.839 122.85 163.544 121.988 164.051C121.131 164.553 120.112 164.804 118.93 164.804ZM118.945 162.294C119.483 162.294 119.932 162.142 120.292 161.838C120.652 161.529 120.923 161.108 121.106 160.575C121.293 160.043 121.387 159.437 121.387 158.758C121.387 158.078 121.293 157.472 121.106 156.94C120.923 156.407 120.652 155.987 120.292 155.677C119.932 155.368 119.483 155.213 118.945 155.213C118.403 155.213 117.947 155.368 117.576 155.677C117.211 155.987 116.935 156.407 116.747 156.94C116.565 157.472 116.474 158.078 116.474 158.758C116.474 159.437 116.565 160.043 116.747 160.575C116.935 161.108 117.211 161.529 117.576 161.838C117.947 162.142 118.403 162.294 118.945 162.294ZM126.519 164.576V152.894H129.607V154.955H129.744C129.988 154.27 130.393 153.73 130.961 153.335C131.529 152.939 132.209 152.741 133 152.741C133.801 152.741 134.483 152.942 135.046 153.342C135.608 153.738 135.984 154.275 136.171 154.955H136.293C136.531 154.285 136.962 153.75 137.586 153.35C138.215 152.944 138.958 152.741 139.814 152.741C140.905 152.741 141.789 153.089 142.469 153.783C143.153 154.473 143.496 155.452 143.496 156.719V164.576H140.263V157.358C140.263 156.709 140.091 156.222 139.746 155.898C139.401 155.573 138.97 155.411 138.453 155.411C137.865 155.411 137.406 155.599 137.076 155.974C136.747 156.344 136.582 156.833 136.582 157.442V164.576H133.441V157.29C133.441 156.717 133.276 156.26 132.946 155.921C132.622 155.581 132.193 155.411 131.661 155.411C131.301 155.411 130.976 155.502 130.687 155.685C130.403 155.862 130.178 156.113 130.011 156.438C129.843 156.757 129.76 157.133 129.76 157.564V164.576H126.519ZM151.111 164.804C149.91 164.804 148.875 164.561 148.008 164.074C147.146 163.582 146.482 162.888 146.016 161.99C145.549 161.088 145.316 160.02 145.316 158.788C145.316 157.586 145.549 156.532 146.016 155.624C146.482 154.716 147.139 154.009 147.985 153.502C148.837 152.995 149.836 152.741 150.982 152.741C151.753 152.741 152.47 152.866 153.135 153.114C153.804 153.358 154.387 153.725 154.884 154.217C155.386 154.709 155.776 155.327 156.055 156.073C156.334 156.813 156.474 157.68 156.474 158.674V159.564H146.609V157.556H153.424C153.424 157.089 153.322 156.676 153.119 156.316C152.917 155.956 152.635 155.675 152.275 155.472C151.92 155.264 151.507 155.16 151.035 155.16C150.544 155.16 150.108 155.274 149.727 155.502C149.352 155.725 149.058 156.027 148.845 156.407C148.632 156.783 148.523 157.201 148.518 157.662V159.572C148.518 160.15 148.624 160.649 148.837 161.07C149.055 161.491 149.362 161.815 149.758 162.043C150.153 162.272 150.622 162.386 151.165 162.386C151.525 162.386 151.854 162.335 152.154 162.234C152.453 162.132 152.709 161.98 152.922 161.777C153.135 161.574 153.297 161.326 153.408 161.032L156.405 161.23C156.253 161.95 155.941 162.578 155.47 163.116C155.003 163.648 154.4 164.064 153.659 164.363C152.924 164.657 152.075 164.804 151.111 164.804ZM163.071 164.576V148.999H166.311V154.856H166.41C166.552 154.541 166.757 154.222 167.026 153.898C167.299 153.568 167.654 153.294 168.09 153.076C168.532 152.853 169.079 152.741 169.733 152.741C170.585 152.741 171.371 152.965 172.091 153.411C172.811 153.852 173.387 154.519 173.818 155.411C174.249 156.298 174.464 157.411 174.464 158.75C174.464 160.053 174.254 161.154 173.833 162.051C173.417 162.943 172.849 163.62 172.129 164.082C171.414 164.538 170.613 164.766 169.726 164.766C169.097 164.766 168.562 164.662 168.121 164.454C167.685 164.247 167.327 163.985 167.048 163.671C166.77 163.352 166.557 163.03 166.41 162.705H166.265V164.576H163.071ZM166.242 158.735C166.242 159.43 166.339 160.035 166.531 160.553C166.724 161.07 167.003 161.473 167.368 161.762C167.733 162.046 168.177 162.188 168.699 162.188C169.226 162.188 169.672 162.043 170.038 161.754C170.403 161.46 170.679 161.055 170.867 160.537C171.059 160.015 171.156 159.414 171.156 158.735C171.156 158.06 171.062 157.467 170.874 156.955C170.687 156.443 170.41 156.042 170.045 155.753C169.68 155.464 169.231 155.32 168.699 155.32C168.172 155.32 167.725 155.459 167.36 155.738C167 156.017 166.724 156.413 166.531 156.925C166.339 157.437 166.242 158.04 166.242 158.735ZM179.69 164.797C178.944 164.797 178.28 164.667 177.697 164.409C177.114 164.145 176.653 163.757 176.313 163.245C175.978 162.728 175.811 162.084 175.811 161.313C175.811 160.664 175.93 160.119 176.168 159.678C176.407 159.237 176.731 158.882 177.142 158.613C177.553 158.344 178.019 158.142 178.541 158.005C179.069 157.868 179.621 157.771 180.199 157.716C180.879 157.645 181.426 157.579 181.842 157.518C182.258 157.452 182.56 157.356 182.747 157.229C182.935 157.102 183.029 156.915 183.029 156.666V156.62C183.029 156.139 182.877 155.766 182.572 155.502C182.273 155.239 181.847 155.107 181.295 155.107C180.712 155.107 180.248 155.236 179.903 155.495C179.558 155.748 179.33 156.068 179.218 156.453L176.222 156.21C176.374 155.5 176.673 154.886 177.119 154.369C177.565 153.847 178.141 153.446 178.846 153.167C179.555 152.883 180.377 152.741 181.31 152.741C181.959 152.741 182.58 152.817 183.173 152.97C183.772 153.122 184.302 153.358 184.763 153.677C185.229 153.996 185.597 154.407 185.866 154.909C186.135 155.406 186.269 156.002 186.269 156.696V164.576H183.196V162.956H183.105C182.917 163.321 182.666 163.643 182.352 163.922C182.037 164.196 181.66 164.411 181.219 164.569C180.777 164.721 180.268 164.797 179.69 164.797ZM180.618 162.561C181.094 162.561 181.515 162.467 181.88 162.279C182.245 162.087 182.532 161.828 182.74 161.503C182.948 161.179 183.052 160.811 183.052 160.401V159.161C182.95 159.227 182.811 159.288 182.633 159.343C182.461 159.394 182.266 159.442 182.048 159.488C181.83 159.528 181.612 159.566 181.394 159.602C181.175 159.632 180.978 159.66 180.8 159.686C180.42 159.741 180.088 159.83 179.804 159.952C179.52 160.073 179.299 160.238 179.142 160.446C178.985 160.649 178.906 160.903 178.906 161.207C178.906 161.648 179.066 161.985 179.386 162.218C179.71 162.447 180.121 162.561 180.618 162.561ZM193.793 164.804C192.597 164.804 191.567 164.551 190.705 164.044C189.848 163.532 189.189 162.822 188.728 161.914C188.272 161.006 188.043 159.962 188.043 158.78C188.043 157.584 188.274 156.534 188.735 155.632C189.202 154.724 189.864 154.017 190.721 153.51C191.578 152.997 192.597 152.741 193.778 152.741C194.797 152.741 195.69 152.927 196.455 153.297C197.221 153.667 197.827 154.187 198.273 154.856C198.719 155.525 198.965 156.311 199.011 157.214H195.953C195.867 156.631 195.639 156.162 195.269 155.807C194.904 155.447 194.425 155.267 193.831 155.267C193.329 155.267 192.891 155.403 192.516 155.677C192.145 155.946 191.856 156.339 191.649 156.856C191.441 157.373 191.337 158 191.337 158.735C191.337 159.48 191.438 160.114 191.641 160.636C191.849 161.159 192.14 161.557 192.516 161.83C192.891 162.104 193.329 162.241 193.831 162.241C194.202 162.241 194.534 162.165 194.828 162.013C195.127 161.861 195.373 161.64 195.566 161.351C195.763 161.057 195.893 160.705 195.953 160.294H199.011C198.96 161.186 198.717 161.972 198.281 162.652C197.85 163.326 197.254 163.854 196.493 164.234C195.733 164.614 194.833 164.804 193.793 164.804ZM203.754 161.214L203.761 157.328H204.233L207.975 152.894H211.694L206.667 158.765H205.899L203.754 161.214ZM200.818 164.576V148.999H204.058V164.576H200.818ZM208.119 164.576L204.682 159.488L206.842 157.198L211.915 164.576H208.119ZM216.538 162.447L216.454 163.283C216.388 163.952 216.261 164.619 216.074 165.284C215.891 165.953 215.698 166.559 215.496 167.101C215.298 167.644 215.138 168.07 215.016 168.379H212.917C212.993 168.08 213.097 167.662 213.229 167.124C213.361 166.592 213.485 165.993 213.602 165.329C213.718 164.665 213.792 163.988 213.822 163.298L213.86 162.447H216.538ZM223.251 164.576V148.999H233.747V151.715H226.544V155.426H233.207V158.142H226.544V161.861H233.777V164.576H223.251ZM236.036 164.576V152.894H239.124V154.955H239.261C239.505 154.27 239.91 153.73 240.478 153.335C241.046 152.939 241.726 152.741 242.517 152.741C243.318 152.741 244 152.942 244.563 153.342C245.125 153.738 245.501 154.275 245.688 154.955H245.81C246.048 154.285 246.479 153.75 247.103 153.35C247.732 152.944 248.475 152.741 249.331 152.741C250.422 152.741 251.306 153.089 251.986 153.783C252.67 154.473 253.013 155.452 253.013 156.719V164.576H249.78V157.358C249.78 156.709 249.608 156.222 249.263 155.898C248.918 155.573 248.487 155.411 247.97 155.411C247.382 155.411 246.923 155.599 246.593 155.974C246.264 156.344 246.099 156.833 246.099 157.442V164.576H242.958V157.29C242.958 156.717 242.793 156.26 242.463 155.921C242.139 155.581 241.71 155.411 241.178 155.411C240.818 155.411 240.493 155.502 240.204 155.685C239.92 155.862 239.695 156.113 239.528 156.438C239.36 156.757 239.277 157.133 239.277 157.564V164.576H236.036ZM255.304 164.576V152.894H258.544V164.576H255.304ZM256.932 151.388C256.45 151.388 256.037 151.228 255.692 150.908C255.353 150.584 255.183 150.196 255.183 149.745C255.183 149.299 255.353 148.916 255.692 148.596C256.037 148.272 256.45 148.109 256.932 148.109C257.414 148.109 257.824 148.272 258.164 148.596C258.509 148.916 258.681 149.299 258.681 149.745C258.681 150.196 258.509 150.584 258.164 150.908C257.824 151.228 257.414 151.388 256.932 151.388ZM264.112 148.999V164.576H260.872V148.999H264.112ZM268.44 168.957C268.03 168.957 267.644 168.924 267.284 168.858C266.929 168.797 266.635 168.719 266.402 168.622L267.132 166.204C267.513 166.32 267.855 166.384 268.159 166.394C268.468 166.404 268.735 166.333 268.958 166.181C269.186 166.029 269.371 165.77 269.513 165.405L269.703 164.911L265.512 152.894H268.92L271.338 161.473H271.46L273.901 152.894H277.332L272.791 165.839C272.573 166.467 272.276 167.015 271.901 167.482C271.531 167.953 271.062 168.316 270.494 168.569C269.926 168.828 269.242 168.957 268.44 168.957ZM282.593 148.999L282.297 159.906H279.513L279.209 148.999H282.593ZM280.905 164.774C280.403 164.774 279.972 164.596 279.612 164.242C279.252 163.882 279.074 163.451 279.08 162.949C279.074 162.452 279.252 162.026 279.612 161.671C279.972 161.316 280.403 161.138 280.905 161.138C281.387 161.138 281.81 161.316 282.175 161.671C282.54 162.026 282.725 162.452 282.73 162.949C282.725 163.283 282.637 163.59 282.464 163.869C282.297 164.143 282.076 164.363 281.802 164.531C281.529 164.693 281.229 164.774 280.905 164.774Z" fill="#6A6A6A"/>
<path d="M88.8809 185.541V176.818H89.9372V180.702H94.5883V176.818H95.6446V185.541H94.5883V181.64H89.9372V185.541H88.8809ZM100.152 185.677C99.5614 185.677 99.0432 185.537 98.5974 185.256C98.1544 184.975 97.808 184.581 97.5581 184.076C97.3111 183.57 97.1876 182.98 97.1876 182.304C97.1876 181.622 97.3111 181.028 97.5581 180.519C97.808 180.011 98.1544 179.616 98.5974 179.335C99.0432 179.054 99.5614 178.914 100.152 178.914C100.743 178.914 101.259 179.054 101.702 179.335C102.148 179.616 102.495 180.011 102.742 180.519C102.992 181.028 103.116 181.622 103.116 182.304C103.116 182.98 102.992 183.57 102.742 184.076C102.495 184.581 102.148 184.975 101.702 185.256C101.259 185.537 100.743 185.677 100.152 185.677ZM100.152 184.774C100.601 184.774 100.97 184.659 101.259 184.429C101.549 184.199 101.763 183.897 101.903 183.522C102.042 183.147 102.111 182.741 102.111 182.304C102.111 181.867 102.042 181.459 101.903 181.082C101.763 180.704 101.549 180.399 101.259 180.166C100.97 179.933 100.601 179.817 100.152 179.817C99.7034 179.817 99.3342 179.933 99.0446 180.166C98.755 180.399 98.5406 180.704 98.4015 181.082C98.2623 181.459 98.1927 181.867 98.1927 182.304C98.1927 182.741 98.2623 183.147 98.4015 183.522C98.5406 183.897 98.755 184.199 99.0446 184.429C99.3342 184.659 99.7034 184.774 100.152 184.774ZM105.782 185.541L103.788 178.999H104.845L106.259 184.008H106.327L107.724 178.999H108.797L110.177 183.991H110.245L111.66 178.999H112.716L110.723 185.541H109.734L108.303 180.515H108.201L106.77 185.541H105.782ZM119.086 185.694C118.671 185.694 118.295 185.616 117.957 185.46C117.619 185.301 117.351 185.072 117.152 184.774C116.953 184.473 116.854 184.11 116.854 183.684C116.854 183.309 116.928 183.005 117.075 182.772C117.223 182.537 117.42 182.352 117.667 182.219C117.914 182.085 118.187 181.986 118.485 181.921C118.786 181.852 119.088 181.799 119.392 181.759C119.79 181.708 120.112 181.669 120.359 181.644C120.609 181.615 120.791 181.569 120.904 181.503C121.021 181.438 121.079 181.324 121.079 181.162V181.128C121.079 180.708 120.964 180.382 120.734 180.149C120.507 179.916 120.162 179.799 119.699 179.799C119.219 179.799 118.843 179.905 118.57 180.115C118.298 180.325 118.106 180.549 117.995 180.788L117.041 180.447C117.212 180.049 117.439 179.74 117.723 179.518C118.009 179.294 118.322 179.138 118.66 179.05C119 178.959 119.336 178.914 119.665 178.914C119.875 178.914 120.116 178.939 120.389 178.99C120.664 179.039 120.93 179.139 121.185 179.293C121.444 179.446 121.658 179.677 121.829 179.987C121.999 180.296 122.084 180.711 122.084 181.231V185.541H121.079V184.655H121.028C120.96 184.797 120.846 184.949 120.687 185.111C120.528 185.273 120.317 185.41 120.052 185.524C119.788 185.638 119.466 185.694 119.086 185.694ZM119.239 184.791C119.636 184.791 119.972 184.713 120.244 184.557C120.52 184.401 120.727 184.199 120.866 183.952C121.008 183.705 121.079 183.445 121.079 183.173V182.253C121.036 182.304 120.943 182.351 120.798 182.393C120.656 182.433 120.491 182.469 120.304 182.5C120.119 182.528 119.939 182.554 119.763 182.577C119.59 182.596 119.449 182.613 119.341 182.628C119.08 182.662 118.836 182.717 118.609 182.794C118.384 182.868 118.203 182.98 118.063 183.13C117.927 183.278 117.859 183.48 117.859 183.735C117.859 184.084 117.988 184.348 118.247 184.527C118.508 184.703 118.839 184.791 119.239 184.791ZM123.79 185.541V178.999H124.761V179.987H124.829C124.949 179.663 125.164 179.401 125.477 179.199C125.789 178.997 126.141 178.897 126.533 178.897C126.607 178.897 126.699 178.898 126.81 178.901C126.921 178.904 127.004 178.908 127.061 178.914V179.936C127.027 179.927 126.949 179.914 126.827 179.897C126.708 179.878 126.581 179.868 126.448 179.868C126.13 179.868 125.846 179.934 125.596 180.068C125.349 180.198 125.153 180.38 125.008 180.613C124.866 180.843 124.795 181.106 124.795 181.401V185.541H123.79ZM130.668 185.677C130.037 185.677 129.494 185.538 129.036 185.26C128.582 184.979 128.231 184.587 127.984 184.084C127.74 183.579 127.618 182.991 127.618 182.321C127.618 181.651 127.74 181.06 127.984 180.549C128.231 180.035 128.575 179.635 129.015 179.348C129.458 179.058 129.975 178.914 130.565 178.914C130.906 178.914 131.243 178.97 131.575 179.084C131.907 179.198 132.21 179.382 132.482 179.638C132.755 179.89 132.972 180.225 133.134 180.643C133.296 181.06 133.377 181.574 133.377 182.185V182.611H128.334V181.742H132.354C132.354 181.373 132.281 181.043 132.133 180.754C131.988 180.464 131.781 180.235 131.511 180.068C131.244 179.9 130.929 179.817 130.565 179.817C130.165 179.817 129.819 179.916 129.526 180.115C129.237 180.311 129.014 180.566 128.857 180.881C128.701 181.197 128.623 181.534 128.623 181.895V182.474C128.623 182.968 128.708 183.387 128.879 183.731C129.052 184.072 129.292 184.331 129.599 184.51C129.905 184.686 130.262 184.774 130.668 184.774C130.932 184.774 131.17 184.737 131.383 184.664C131.599 184.587 131.785 184.473 131.941 184.323C132.097 184.17 132.218 183.979 132.303 183.752L133.274 184.025C133.172 184.354 133 184.644 132.759 184.894C132.518 185.141 132.219 185.334 131.865 185.473C131.51 185.609 131.111 185.677 130.668 185.677ZM138.669 187.994C138.498 187.994 138.346 187.98 138.213 187.952C138.08 187.926 137.987 187.901 137.936 187.875L138.192 186.989C138.436 187.052 138.652 187.074 138.839 187.057C139.027 187.04 139.193 186.957 139.337 186.806C139.485 186.658 139.62 186.418 139.742 186.086L139.93 185.575L137.51 178.999H138.601L140.407 184.212H140.475L142.281 178.999H143.371L140.594 186.495C140.469 186.833 140.314 187.113 140.13 187.334C139.945 187.558 139.731 187.725 139.487 187.833C139.245 187.94 138.973 187.994 138.669 187.994ZM146.992 185.677C146.402 185.677 145.884 185.537 145.438 185.256C144.995 184.975 144.648 184.581 144.399 184.076C144.152 183.57 144.028 182.98 144.028 182.304C144.028 181.622 144.152 181.028 144.399 180.519C144.648 180.011 144.995 179.616 145.438 179.335C145.884 179.054 146.402 178.914 146.992 178.914C147.583 178.914 148.1 179.054 148.543 179.335C148.989 179.616 149.335 180.011 149.582 180.519C149.832 181.028 149.957 181.622 149.957 182.304C149.957 182.98 149.832 183.57 149.582 184.076C149.335 184.581 148.989 184.975 148.543 185.256C148.1 185.537 147.583 185.677 146.992 185.677ZM146.992 184.774C147.441 184.774 147.81 184.659 148.1 184.429C148.39 184.199 148.604 183.897 148.743 183.522C148.882 183.147 148.952 182.741 148.952 182.304C148.952 181.867 148.882 181.459 148.743 181.082C148.604 180.704 148.39 180.399 148.1 180.166C147.81 179.933 147.441 179.817 146.992 179.817C146.544 179.817 146.175 179.933 145.885 180.166C145.595 180.399 145.381 180.704 145.242 181.082C145.103 181.459 145.033 181.867 145.033 182.304C145.033 182.741 145.103 183.147 145.242 183.522C145.381 183.897 145.595 184.199 145.885 184.429C146.175 184.659 146.544 184.774 146.992 184.774ZM155.486 182.866V178.999H156.491V185.541H155.486V184.434H155.417C155.264 184.766 155.026 185.048 154.702 185.281C154.378 185.511 153.969 185.626 153.475 185.626C153.066 185.626 152.703 185.537 152.385 185.358C152.067 185.176 151.817 184.904 151.635 184.54C151.453 184.174 151.363 183.712 151.363 183.156V178.999H152.368V183.088C152.368 183.565 152.501 183.945 152.768 184.229C153.038 184.513 153.381 184.655 153.799 184.655C154.049 184.655 154.303 184.591 154.561 184.463C154.822 184.336 155.041 184.14 155.217 183.876C155.396 183.612 155.486 183.275 155.486 182.866ZM164.361 178.999V179.851H160.834V178.999H164.361ZM161.89 185.541V178.096C161.89 177.721 161.978 177.409 162.154 177.159C162.331 176.909 162.559 176.721 162.84 176.597C163.121 176.472 163.418 176.409 163.73 176.409C163.977 176.409 164.179 176.429 164.335 176.469C164.491 176.508 164.608 176.545 164.685 176.579L164.395 177.448C164.344 177.431 164.273 177.41 164.182 177.384C164.094 177.359 163.977 177.346 163.833 177.346C163.5 177.346 163.26 177.43 163.113 177.597C162.968 177.765 162.896 178.011 162.896 178.334V185.541H161.89ZM168.114 185.677C167.484 185.677 166.94 185.538 166.483 185.26C166.029 184.979 165.678 184.587 165.431 184.084C165.187 183.579 165.065 182.991 165.065 182.321C165.065 181.651 165.187 181.06 165.431 180.549C165.678 180.035 166.022 179.635 166.462 179.348C166.905 179.058 167.421 178.914 168.012 178.914C168.353 178.914 168.689 178.97 169.022 179.084C169.354 179.198 169.656 179.382 169.929 179.638C170.201 179.89 170.419 180.225 170.58 180.643C170.742 181.06 170.823 181.574 170.823 182.185V182.611H165.78V181.742H169.801C169.801 181.373 169.727 181.043 169.58 180.754C169.435 180.464 169.227 180.235 168.958 180.068C168.691 179.9 168.376 179.817 168.012 179.817C167.612 179.817 167.265 179.916 166.973 180.115C166.683 180.311 166.46 180.566 166.304 180.881C166.148 181.197 166.07 181.534 166.07 181.895V182.474C166.07 182.968 166.155 183.387 166.325 183.731C166.499 184.072 166.739 184.331 167.045 184.51C167.352 184.686 167.708 184.774 168.114 184.774C168.378 184.774 168.617 184.737 168.83 184.664C169.046 184.587 169.232 184.473 169.388 184.323C169.544 184.17 169.665 183.979 169.75 183.752L170.721 184.025C170.619 184.354 170.447 184.644 170.206 184.894C169.964 185.141 169.666 185.334 169.311 185.473C168.956 185.609 168.557 185.677 168.114 185.677ZM174.966 185.677C174.336 185.677 173.792 185.538 173.335 185.26C172.881 184.979 172.53 184.587 172.283 184.084C172.039 183.579 171.917 182.991 171.917 182.321C171.917 181.651 172.039 181.06 172.283 180.549C172.53 180.035 172.874 179.635 173.314 179.348C173.757 179.058 174.274 178.914 174.864 178.914C175.205 178.914 175.541 178.97 175.874 179.084C176.206 179.198 176.508 179.382 176.781 179.638C177.053 179.89 177.271 180.225 177.433 180.643C177.594 181.06 177.675 181.574 177.675 182.185V182.611H172.632V181.742H176.653C176.653 181.373 176.579 181.043 176.432 180.754C176.287 180.464 176.08 180.235 175.81 180.068C175.543 179.9 175.228 179.817 174.864 179.817C174.464 179.817 174.117 179.916 173.825 180.115C173.535 180.311 173.312 180.566 173.156 180.881C173 181.197 172.922 181.534 172.922 181.895V182.474C172.922 182.968 173.007 183.387 173.178 183.731C173.351 184.072 173.591 184.331 173.897 184.51C174.204 184.686 174.56 184.774 174.966 184.774C175.231 184.774 175.469 184.737 175.682 184.664C175.898 184.587 176.084 184.473 176.24 184.323C176.396 184.17 176.517 183.979 176.602 183.752L177.573 184.025C177.471 184.354 177.299 184.644 177.058 184.894C176.816 185.141 176.518 185.334 176.163 185.473C175.808 185.609 175.409 185.677 174.966 185.677ZM180.081 176.818V185.541H179.076V176.818H180.081ZM181.793 185.541V178.999H182.798V185.541H181.793ZM182.304 177.908C182.108 177.908 181.939 177.842 181.797 177.708C181.658 177.575 181.589 177.414 181.589 177.227C181.589 177.039 181.658 176.879 181.797 176.746C181.939 176.612 182.108 176.545 182.304 176.545C182.5 176.545 182.668 176.612 182.807 176.746C182.949 176.879 183.02 177.039 183.02 177.227C183.02 177.414 182.949 177.575 182.807 177.708C182.668 177.842 182.5 177.908 182.304 177.908ZM185.516 181.605V185.541H184.51V178.999H185.482V180.021H185.567C185.72 179.689 185.953 179.422 186.265 179.22C186.578 179.016 186.981 178.914 187.475 178.914C187.918 178.914 188.305 179.004 188.638 179.186C188.97 179.365 189.228 179.638 189.413 180.004C189.597 180.367 189.69 180.827 189.69 181.384V185.541H188.685V181.452C188.685 180.938 188.551 180.538 188.284 180.251C188.017 179.961 187.651 179.817 187.185 179.817C186.864 179.817 186.578 179.886 186.325 180.025C186.075 180.164 185.878 180.367 185.733 180.634C185.588 180.901 185.516 181.225 185.516 181.605ZM194.038 188.131C193.553 188.131 193.135 188.068 192.786 187.943C192.437 187.821 192.146 187.659 191.913 187.458C191.683 187.259 191.5 187.046 191.364 186.819L192.164 186.257C192.255 186.376 192.37 186.512 192.509 186.665C192.649 186.822 192.839 186.957 193.08 187.07C193.324 187.187 193.644 187.245 194.038 187.245C194.567 187.245 195.002 187.117 195.346 186.861C195.69 186.606 195.861 186.205 195.861 185.66V184.331H195.776C195.702 184.451 195.597 184.598 195.461 184.774C195.328 184.948 195.135 185.102 194.882 185.239C194.632 185.372 194.294 185.439 193.868 185.439C193.34 185.439 192.866 185.314 192.445 185.064C192.028 184.814 191.697 184.451 191.453 183.974C191.212 183.497 191.091 182.917 191.091 182.236C191.091 181.566 191.209 180.982 191.445 180.485C191.68 179.985 192.008 179.599 192.428 179.327C192.849 179.051 193.334 178.914 193.885 178.914C194.311 178.914 194.649 178.985 194.899 179.127C195.152 179.266 195.345 179.425 195.478 179.604C195.614 179.78 195.719 179.924 195.793 180.038H195.896V178.999H196.867V185.728C196.867 186.291 196.739 186.748 196.483 187.1C196.231 187.455 195.89 187.715 195.461 187.879C195.035 188.047 194.561 188.131 194.038 188.131ZM194.004 184.536C194.408 184.536 194.748 184.444 195.027 184.259C195.305 184.074 195.516 183.809 195.661 183.462C195.806 183.116 195.878 182.701 195.878 182.219C195.878 181.747 195.807 181.331 195.666 180.971C195.524 180.61 195.313 180.328 195.035 180.123C194.757 179.919 194.413 179.817 194.004 179.817C193.578 179.817 193.224 179.924 192.94 180.14C192.658 180.356 192.447 180.646 192.305 181.009C192.166 181.373 192.096 181.776 192.096 182.219C192.096 182.673 192.167 183.075 192.309 183.424C192.454 183.771 192.667 184.043 192.948 184.242C193.232 184.438 193.584 184.536 194.004 184.536ZM201.822 185.541V178.999H202.793V179.987H202.862C202.981 179.663 203.197 179.401 203.509 179.199C203.821 178.997 204.173 178.897 204.565 178.897C204.639 178.897 204.731 178.898 204.842 178.901C204.953 178.904 205.037 178.908 205.093 178.914V179.936C205.059 179.927 204.981 179.914 204.859 179.897C204.74 179.878 204.614 179.868 204.48 179.868C204.162 179.868 203.878 179.934 203.628 180.068C203.381 180.198 203.185 180.38 203.04 180.613C202.899 180.843 202.828 181.106 202.828 181.401V185.541H201.822ZM206.156 185.541V178.999H207.161V185.541H206.156ZM206.667 177.908C206.471 177.908 206.302 177.842 206.16 177.708C206.021 177.575 205.952 177.414 205.952 177.227C205.952 177.039 206.021 176.879 206.16 176.746C206.302 176.612 206.471 176.545 206.667 176.545C206.863 176.545 207.031 176.612 207.17 176.746C207.312 176.879 207.383 177.039 207.383 177.227C207.383 177.414 207.312 177.575 207.17 177.708C207.031 177.842 206.863 177.908 206.667 177.908ZM211.514 188.131C211.029 188.131 210.611 188.068 210.262 187.943C209.913 187.821 209.622 187.659 209.389 187.458C209.159 187.259 208.976 187.046 208.839 186.819L209.64 186.257C209.731 186.376 209.846 186.512 209.985 186.665C210.124 186.822 210.315 186.957 210.556 187.07C210.8 187.187 211.12 187.245 211.514 187.245C212.042 187.245 212.478 187.117 212.822 186.861C213.166 186.606 213.337 186.205 213.337 185.66V184.331H213.252C213.178 184.451 213.073 184.598 212.937 184.774C212.803 184.948 212.61 185.102 212.358 185.239C212.108 185.372 211.77 185.439 211.344 185.439C210.816 185.439 210.342 185.314 209.921 185.064C209.504 184.814 209.173 184.451 208.929 183.974C208.688 183.497 208.567 182.917 208.567 182.236C208.567 181.566 208.685 180.982 208.92 180.485C209.156 179.985 209.484 179.599 209.904 179.327C210.325 179.051 210.81 178.914 211.361 178.914C211.787 178.914 212.125 178.985 212.375 179.127C212.627 179.266 212.821 179.425 212.954 179.604C213.09 179.78 213.195 179.924 213.269 180.038H213.371V178.999H214.343V185.728C214.343 186.291 214.215 186.748 213.959 187.1C213.706 187.455 213.366 187.715 212.937 187.879C212.511 188.047 212.037 188.131 211.514 188.131ZM211.48 184.536C211.883 184.536 212.224 184.444 212.502 184.259C212.781 184.074 212.992 183.809 213.137 183.462C213.282 183.116 213.354 182.701 213.354 182.219C213.354 181.747 213.283 181.331 213.141 180.971C212.999 180.61 212.789 180.328 212.511 180.123C212.233 179.919 211.889 179.817 211.48 179.817C211.054 179.817 210.699 179.924 210.415 180.14C210.134 180.356 209.923 180.646 209.781 181.009C209.642 181.373 209.572 181.776 209.572 182.219C209.572 182.673 209.643 183.075 209.785 183.424C209.93 183.771 210.143 184.043 210.424 184.242C210.708 184.438 211.06 184.536 211.48 184.536ZM217.059 181.605V185.541H216.054V176.818H217.059V180.021H217.144C217.297 179.683 217.527 179.415 217.834 179.216C218.144 179.014 218.555 178.914 219.069 178.914C219.515 178.914 219.905 179.003 220.241 179.182C220.576 179.358 220.835 179.629 221.02 179.995C221.207 180.359 221.301 180.822 221.301 181.384V185.541H220.296V181.452C220.296 180.932 220.161 180.531 219.891 180.247C219.624 179.96 219.254 179.817 218.78 179.817C218.45 179.817 218.155 179.886 217.894 180.025C217.635 180.164 217.431 180.367 217.28 180.634C217.133 180.901 217.059 181.225 217.059 181.605ZM225.856 178.999V179.851H222.466V178.999H225.856ZM223.454 177.431H224.459V183.667C224.459 183.951 224.501 184.164 224.583 184.306C224.668 184.445 224.776 184.539 224.907 184.587C225.04 184.632 225.181 184.655 225.328 184.655C225.439 184.655 225.53 184.649 225.601 184.638C225.672 184.624 225.729 184.612 225.771 184.604L225.976 185.507C225.908 185.532 225.812 185.558 225.69 185.584C225.568 185.612 225.413 185.626 225.226 185.626C224.942 185.626 224.664 185.565 224.391 185.443C224.121 185.321 223.897 185.135 223.718 184.885C223.542 184.635 223.454 184.32 223.454 183.94V177.431ZM231.489 181.605V185.541H230.484V178.999H231.455V180.021H231.54C231.694 179.689 231.927 179.422 232.239 179.22C232.551 179.016 232.955 178.914 233.449 178.914C233.892 178.914 234.279 179.004 234.611 179.186C234.944 179.365 235.202 179.638 235.387 180.004C235.571 180.367 235.663 180.827 235.663 181.384V185.541H234.658V181.452C234.658 180.938 234.525 180.538 234.258 180.251C233.991 179.961 233.625 179.817 233.159 179.817C232.838 179.817 232.551 179.886 232.299 180.025C232.049 180.164 231.851 180.367 231.707 180.634C231.562 180.901 231.489 181.225 231.489 181.605ZM240.029 185.677C239.439 185.677 238.92 185.537 238.475 185.256C238.032 184.975 237.685 184.581 237.435 184.076C237.188 183.57 237.065 182.98 237.065 182.304C237.065 181.622 237.188 181.028 237.435 180.519C237.685 180.011 238.032 179.616 238.475 179.335C238.92 179.054 239.439 178.914 240.029 178.914C240.62 178.914 241.137 179.054 241.58 179.335C242.025 179.616 242.372 180.011 242.619 180.519C242.869 181.028 242.994 181.622 242.994 182.304C242.994 182.98 242.869 183.57 242.619 184.076C242.372 184.581 242.025 184.975 241.58 185.256C241.137 185.537 240.62 185.677 240.029 185.677ZM240.029 184.774C240.478 184.774 240.847 184.659 241.137 184.429C241.426 184.199 241.641 183.897 241.78 183.522C241.919 183.147 241.988 182.741 241.988 182.304C241.988 181.867 241.919 181.459 241.78 181.082C241.641 180.704 241.426 180.399 241.137 180.166C240.847 179.933 240.478 179.817 240.029 179.817C239.581 179.817 239.211 179.933 238.922 180.166C238.632 180.399 238.418 180.704 238.279 181.082C238.139 181.459 238.07 181.867 238.07 182.304C238.07 182.741 238.139 183.147 238.279 183.522C238.418 183.897 238.632 184.199 238.922 184.429C239.211 184.659 239.581 184.774 240.029 184.774ZM245.659 185.541L243.666 178.999H244.722L246.136 184.008H246.204L247.601 178.999H248.674L250.055 183.991H250.123L251.537 178.999H252.593L250.6 185.541H249.612L248.18 180.515H248.078L246.647 185.541H245.659ZM255.105 183.088V183.037C255.111 182.494 255.167 182.063 255.275 181.742C255.383 181.421 255.537 181.161 255.735 180.962C255.934 180.764 256.173 180.58 256.451 180.413C256.618 180.311 256.769 180.19 256.902 180.051C257.036 179.909 257.141 179.746 257.218 179.561C257.297 179.376 257.337 179.172 257.337 178.948C257.337 178.669 257.272 178.428 257.141 178.224C257.01 178.019 256.836 177.862 256.617 177.751C256.398 177.64 256.156 177.585 255.889 177.585C255.656 177.585 255.432 177.633 255.216 177.729C255 177.826 254.82 177.978 254.675 178.185C254.53 178.393 254.446 178.664 254.423 178.999H253.35C253.373 178.516 253.498 178.103 253.725 177.759C253.955 177.416 254.257 177.153 254.632 176.971C255.01 176.79 255.429 176.699 255.889 176.699C256.388 176.699 256.823 176.798 257.192 176.997C257.564 177.196 257.851 177.468 258.052 177.815C258.257 178.161 258.359 178.556 258.359 178.999C258.359 179.311 258.311 179.594 258.214 179.846C258.121 180.099 257.984 180.325 257.805 180.524C257.629 180.722 257.416 180.898 257.166 181.052C256.917 181.208 256.716 181.373 256.566 181.546C256.415 181.716 256.306 181.919 256.238 182.155C256.17 182.391 256.133 182.684 256.127 183.037V183.088H255.105ZM255.65 185.609C255.44 185.609 255.26 185.534 255.109 185.383C254.959 185.233 254.883 185.053 254.883 184.842C254.883 184.632 254.959 184.452 255.109 184.302C255.26 184.151 255.44 184.076 255.65 184.076C255.86 184.076 256.041 184.151 256.191 184.302C256.342 184.452 256.417 184.632 256.417 184.842C256.417 184.982 256.381 185.109 256.31 185.226C256.242 185.342 256.15 185.436 256.033 185.507C255.92 185.575 255.792 185.609 255.65 185.609Z" fill="#6A6A6A"/>
<g filter="url(#filter0_d_531_24357)">
<path d="M34.2714 272.436C34.2714 267.705 38.1071 263.869 42.8387 263.869H300.783C305.514 263.869 309.35 267.705 309.35 272.436V311.309C309.35 316.04 305.514 319.876 300.783 319.876H42.8387C38.1071 319.876 34.2714 316.04 34.2714 311.309V272.436Z" fill="white" shape-rendering="crispEdges"/>
<path d="M48.5687 302.066H69.1301V281.505H48.5687V302.066Z" fill="white"/>
<path d="M87.2822 288.967C87.1881 288.672 87.0616 288.408 86.9025 288.174C86.7468 287.937 86.5602 287.736 86.3427 287.57C86.1253 287.402 85.8771 287.273 85.598 287.186C85.3221 287.098 85.0187 287.054 84.6877 287.054C84.1263 287.054 83.62 287.199 83.169 287.488C82.7179 287.776 82.3609 288.2 82.0981 288.758C81.8384 289.313 81.7086 289.993 81.7086 290.798C81.7086 291.606 81.8401 292.289 82.1029 292.847C82.3658 293.405 82.726 293.829 83.1836 294.117C83.6411 294.406 84.162 294.551 84.7461 294.551C85.2881 294.551 85.7602 294.44 86.1626 294.22C86.5683 293.999 86.8814 293.687 87.1021 293.285C87.326 292.879 87.438 292.402 87.438 291.854L87.8274 291.927H84.9749V290.686H88.8935V291.82C88.8935 292.657 88.715 293.384 88.358 294.001C88.0043 294.614 87.5143 295.088 86.8879 295.422C86.2649 295.756 85.5509 295.923 84.7461 295.923C83.844 295.923 83.0521 295.716 82.3707 295.3C81.6924 294.885 81.1634 294.296 80.7838 293.533C80.4041 292.767 80.2142 291.859 80.2142 290.807C80.2142 290.012 80.3246 289.298 80.5452 288.666C80.7659 288.033 81.0758 287.496 81.475 287.054C81.8774 286.61 82.3496 286.271 82.8915 286.037C83.4367 285.8 84.0322 285.682 84.678 285.682C85.2167 285.682 85.718 285.761 86.1821 285.92C86.6494 286.079 87.0648 286.305 87.4283 286.597C87.795 286.889 88.0984 287.236 88.3385 287.638C88.5787 288.038 88.7409 288.481 88.8253 288.967H87.2822ZM90.4183 295.787V288.31H91.8251V289.498H91.9029C92.0392 289.096 92.2794 288.779 92.6234 288.549C92.9706 288.315 93.3633 288.198 93.8014 288.198C93.8922 288.198 93.9993 288.202 94.1226 288.208C94.2492 288.214 94.3482 288.223 94.4196 288.232V289.625C94.3612 289.608 94.2573 289.59 94.108 289.571C93.9588 289.548 93.8095 289.537 93.6602 289.537C93.3162 289.537 93.0095 289.61 92.7402 289.756C92.4741 289.899 92.2632 290.098 92.1074 290.355C91.9516 290.608 91.8737 290.897 91.8737 291.221V295.787H90.4183ZM98.3661 295.938C97.6295 295.938 96.995 295.781 96.4628 295.466C95.9339 295.148 95.525 294.702 95.2361 294.127C94.9506 293.55 94.8078 292.873 94.8078 292.097C94.8078 291.331 94.9506 290.656 95.2361 290.072C95.525 289.488 95.9274 289.032 96.4433 288.705C96.9626 288.377 97.5694 288.213 98.2639 288.213C98.6858 288.213 99.0947 288.283 99.4906 288.422C99.8865 288.562 100.242 288.781 100.557 289.079C100.871 289.378 101.12 289.766 101.301 290.243C101.483 290.717 101.574 291.293 101.574 291.971V292.487H95.6304V291.396H100.148C100.148 291.013 100.07 290.674 99.9141 290.379C99.7583 290.08 99.5392 289.845 99.2569 289.673C98.9778 289.501 98.6501 289.415 98.2736 289.415C97.8647 289.415 97.5078 289.516 97.2027 289.717C96.9009 289.915 96.6673 290.175 96.5018 290.496C96.3395 290.814 96.2584 291.159 96.2584 291.533V292.385C96.2584 292.884 96.346 293.309 96.5212 293.66C96.6997 294.01 96.948 294.278 97.266 294.463C97.584 294.645 97.9556 294.736 98.3807 294.736C98.6566 294.736 98.9081 294.697 99.1352 294.619C99.3624 294.538 99.5587 294.418 99.7242 294.259C99.8897 294.1 100.016 293.903 100.104 293.67L101.481 293.918C101.371 294.324 101.173 294.679 100.888 294.984C100.605 295.286 100.25 295.521 99.8216 295.69C99.3965 295.855 98.9113 295.938 98.3661 295.938ZM105.097 295.953C104.623 295.953 104.195 295.865 103.812 295.69C103.429 295.511 103.126 295.253 102.902 294.916C102.681 294.578 102.571 294.165 102.571 293.675C102.571 293.253 102.652 292.905 102.814 292.633C102.976 292.36 103.195 292.144 103.471 291.985C103.747 291.826 104.055 291.706 104.396 291.625C104.737 291.544 105.084 291.482 105.438 291.44C105.886 291.388 106.249 291.346 106.528 291.314C106.807 291.278 107.01 291.221 107.137 291.143C107.263 291.065 107.326 290.939 107.326 290.764V290.73C107.326 290.304 107.206 289.975 106.966 289.741C106.729 289.508 106.376 289.391 105.905 289.391C105.415 289.391 105.029 289.5 104.747 289.717C104.467 289.931 104.274 290.17 104.167 290.433L102.799 290.121C102.962 289.667 103.199 289.3 103.51 289.021C103.825 288.739 104.187 288.534 104.596 288.408C105.005 288.278 105.435 288.213 105.886 288.213C106.184 288.213 106.501 288.249 106.835 288.32C107.172 288.388 107.487 288.515 107.779 288.7C108.074 288.885 108.316 289.149 108.504 289.493C108.693 289.834 108.787 290.277 108.787 290.822V295.787H107.365V294.765H107.307C107.213 294.953 107.072 295.138 106.883 295.32C106.695 295.502 106.453 295.652 106.158 295.773C105.863 295.893 105.509 295.953 105.097 295.953ZM105.413 294.784C105.816 294.784 106.16 294.705 106.445 294.546C106.734 294.387 106.953 294.179 107.103 293.923C107.255 293.663 107.331 293.386 107.331 293.09V292.127C107.279 292.178 107.179 292.227 107.03 292.273C106.883 292.315 106.716 292.352 106.528 292.385C106.34 292.414 106.157 292.441 105.978 292.467C105.8 292.49 105.65 292.509 105.53 292.526C105.248 292.561 104.99 292.621 104.756 292.706C104.526 292.79 104.341 292.912 104.201 293.071C104.065 293.227 103.997 293.434 103.997 293.694C103.997 294.054 104.13 294.327 104.396 294.512C104.662 294.693 105.001 294.784 105.413 294.784ZM113.948 288.31V289.478H109.864V288.31H113.948ZM110.959 286.519H112.414V293.592C112.414 293.874 112.457 294.087 112.541 294.229C112.625 294.369 112.734 294.465 112.867 294.517C113.003 294.565 113.151 294.59 113.31 294.59C113.427 294.59 113.529 294.582 113.617 294.565C113.704 294.549 113.773 294.536 113.821 294.526L114.084 295.729C114 295.761 113.88 295.794 113.724 295.826C113.568 295.862 113.373 295.881 113.14 295.884C112.757 295.891 112.4 295.823 112.069 295.68C111.738 295.537 111.47 295.317 111.266 295.018C111.061 294.719 110.959 294.345 110.959 293.894V286.519Z" fill="#5D5D5D"/>
</g>
<g filter="url(#filter1_d_531_24357)">
<path d="M34.2714 338.722C34.2714 333.99 38.1071 330.154 42.8387 330.154H300.783C305.514 330.154 309.35 333.99 309.35 338.722V377.594C309.35 382.325 305.514 386.161 300.783 386.161H42.8387C38.1071 386.161 34.2714 382.325 34.2714 377.594V338.722Z" fill="white" shape-rendering="crispEdges"/>
<path d="M48.5687 368.351H69.1301V347.79H48.5687V368.351Z" fill="white"/>
<path d="M87.2822 355.254C87.1881 354.959 87.0616 354.695 86.9025 354.461C86.7468 354.224 86.5602 354.023 86.3427 353.857C86.1253 353.689 85.8771 353.561 85.598 353.473C85.3221 353.385 85.0187 353.341 84.6877 353.341C84.1263 353.341 83.62 353.486 83.169 353.775C82.7179 354.064 82.3609 354.487 82.0981 355.045C81.8384 355.6 81.7086 356.28 81.7086 357.085C81.7086 357.893 81.8401 358.576 82.1029 359.134C82.3658 359.692 82.726 360.116 83.1836 360.405C83.6411 360.693 84.162 360.838 84.7461 360.838C85.2881 360.838 85.7602 360.727 86.1626 360.507C86.5683 360.286 86.8814 359.975 87.1021 359.572C87.326 359.167 87.438 358.69 87.438 358.141L87.8274 358.214H84.9749V356.973H88.8935V358.107C88.8935 358.944 88.715 359.671 88.358 360.288C88.0043 360.901 87.5143 361.375 86.8879 361.709C86.2649 362.043 85.5509 362.211 84.7461 362.211C83.844 362.211 83.0521 362.003 82.3707 361.587C81.6924 361.172 81.1635 360.583 80.7838 359.82C80.4041 359.055 80.2142 358.146 80.2142 357.095C80.2142 356.299 80.3246 355.585 80.5452 354.953C80.7659 354.32 81.0758 353.783 81.475 353.341C81.8774 352.897 82.3496 352.558 82.8915 352.324C83.4367 352.087 84.0322 351.969 84.678 351.969C85.2167 351.969 85.7181 352.048 86.1821 352.207C86.6494 352.366 87.0648 352.592 87.4283 352.884C87.795 353.176 88.0984 353.523 88.3385 353.926C88.5787 354.325 88.7409 354.768 88.8253 355.254H87.2822ZM93.5677 362.225C92.8668 362.225 92.255 362.064 91.7326 361.743C91.2101 361.422 90.8045 360.972 90.5156 360.395C90.2268 359.817 90.0824 359.142 90.0824 358.37C90.0824 357.594 90.2268 356.916 90.5156 356.335C90.8045 355.754 91.2101 355.303 91.7326 354.982C92.255 354.661 92.8668 354.5 93.5677 354.5C94.2687 354.5 94.8804 354.661 95.4029 354.982C95.9253 355.303 96.331 355.754 96.6198 356.335C96.9086 356.916 97.053 357.594 97.053 358.37C97.053 359.142 96.9086 359.817 96.6198 360.395C96.331 360.972 95.9253 361.422 95.4029 361.743C94.8804 362.064 94.2687 362.225 93.5677 362.225ZM93.5726 361.003C94.0269 361.003 94.4034 360.883 94.7019 360.643C95.0005 360.403 95.2211 360.083 95.3639 359.684C95.51 359.285 95.583 358.845 95.583 358.365C95.583 357.888 95.51 357.45 95.3639 357.051C95.2211 356.648 95.0005 356.325 94.7019 356.082C94.4034 355.839 94.0269 355.717 93.5726 355.717C93.115 355.717 92.7353 355.839 92.4335 356.082C92.135 356.325 91.9127 356.648 91.7667 357.051C91.6239 357.45 91.5525 357.888 91.5525 358.365C91.5525 358.845 91.6239 359.285 91.7667 359.684C91.9127 360.083 92.135 360.403 92.4335 360.643C92.7353 360.883 93.115 361.003 93.5726 361.003ZM101.559 362.225C100.858 362.225 100.247 362.064 99.7242 361.743C99.2017 361.422 98.7961 360.972 98.5073 360.395C98.2185 359.817 98.0741 359.142 98.0741 358.37C98.0741 357.594 98.2185 356.916 98.5073 356.335C98.7961 355.754 99.2017 355.303 99.7242 354.982C100.247 354.661 100.858 354.5 101.559 354.5C102.26 354.5 102.872 354.661 103.395 354.982C103.917 355.303 104.323 355.754 104.611 356.335C104.9 356.916 105.045 357.594 105.045 358.37C105.045 359.142 104.9 359.817 104.611 360.395C104.323 360.972 103.917 361.422 103.395 361.743C102.872 362.064 102.26 362.225 101.559 362.225ZM101.564 361.003C102.019 361.003 102.395 360.883 102.694 360.643C102.992 360.403 103.213 360.083 103.356 359.684C103.502 359.285 103.575 358.845 103.575 358.365C103.575 357.888 103.502 357.45 103.356 357.051C103.213 356.648 102.992 356.325 102.694 356.082C102.395 355.839 102.019 355.717 101.564 355.717C101.107 355.717 100.727 355.839 100.425 356.082C100.127 356.325 99.9043 356.648 99.7583 357.051C99.6155 357.45 99.5441 357.888 99.5441 358.365C99.5441 358.845 99.6155 359.285 99.7583 359.684C99.9043 360.083 100.127 360.403 100.425 360.643C100.727 360.883 101.107 361.003 101.564 361.003ZM109.201 362.22C108.597 362.22 108.058 362.066 107.584 361.758C107.114 361.446 106.744 361.003 106.475 360.429C106.208 359.851 106.075 359.158 106.075 358.35C106.075 357.542 106.21 356.851 106.479 356.277C106.752 355.702 107.125 355.263 107.599 354.958C108.073 354.653 108.61 354.5 109.21 354.5C109.674 354.5 110.048 354.578 110.33 354.734C110.615 354.886 110.836 355.065 110.992 355.269C111.151 355.474 111.274 355.654 111.362 355.809H111.449V352.105H112.905V362.074H111.484V360.911H111.362C111.274 361.07 111.148 361.252 110.982 361.456C110.82 361.66 110.596 361.839 110.31 361.991C110.025 362.144 109.655 362.22 109.201 362.22ZM109.522 360.979C109.94 360.979 110.294 360.869 110.583 360.648C110.875 360.424 111.096 360.114 111.245 359.718C111.398 359.322 111.474 358.861 111.474 358.336C111.474 357.817 111.399 357.362 111.25 356.973C111.101 356.583 110.882 356.28 110.593 356.063C110.304 355.845 109.947 355.736 109.522 355.736C109.084 355.736 108.719 355.85 108.427 356.077C108.134 356.304 107.914 356.614 107.765 357.007C107.619 357.4 107.545 357.843 107.545 358.336C107.545 358.836 107.62 359.285 107.769 359.684C107.919 360.083 108.139 360.4 108.431 360.633C108.727 360.864 109.09 360.979 109.522 360.979Z" fill="#5D5D5D"/>
</g>
<g filter="url(#filter2_d_531_24357)">
<path d="M34.2714 405.007C34.2714 400.275 38.1071 396.439 42.8387 396.439H300.783C305.514 396.439 309.35 400.275 309.35 405.007V443.879C309.35 448.61 305.514 452.446 300.783 452.446H42.8387C38.1071 452.446 34.2714 448.611 34.2714 443.879V405.007Z" fill="white" shape-rendering="crispEdges"/>
<path d="M48.5687 434.635H69.1301V414.073H48.5687V434.635Z" fill="white"/>
<path d="M89.1953 423.375C89.1953 424.439 89.0005 425.354 88.6111 426.12C88.2217 426.883 87.6879 427.47 87.0096 427.882C86.3346 428.291 85.5672 428.496 84.7072 428.496C83.844 428.496 83.0732 428.291 82.395 427.882C81.72 427.47 81.1878 426.881 80.7984 426.115C80.4089 425.349 80.2142 424.436 80.2142 423.375C80.2142 422.31 80.4089 421.397 80.7984 420.634C81.1878 419.868 81.72 419.281 82.395 418.872C83.0732 418.46 83.844 418.254 84.7072 418.254C85.5672 418.254 86.3346 418.46 87.0096 418.872C87.6879 419.281 88.2217 419.868 88.6111 420.634C89.0005 421.397 89.1953 422.31 89.1953 423.375ZM87.7057 423.375C87.7057 422.563 87.5743 421.88 87.3114 421.325C87.0518 420.767 86.6949 420.345 86.2405 420.06C85.7894 419.771 85.2783 419.627 84.7072 419.627C84.1328 419.627 83.62 419.771 83.169 420.06C82.7179 420.345 82.3609 420.767 82.0981 421.325C81.8384 421.88 81.7086 422.563 81.7086 423.375C81.7086 424.186 81.8384 424.871 82.0981 425.429C82.3609 425.984 82.7179 426.406 83.169 426.695C83.62 426.98 84.1328 427.123 84.7072 427.123C85.2783 427.123 85.7894 426.98 86.2405 426.695C86.6949 426.406 87.0518 425.984 87.3114 425.429C87.5743 424.871 87.7057 424.186 87.7057 423.375ZM92.0246 425.823L92.0149 424.047H92.268L95.2471 420.882H96.9898L93.5921 424.485H93.3633L92.0246 425.823ZM90.686 428.359V418.39H92.1415V428.359H90.686ZM95.4077 428.359L92.7305 424.806L93.7332 423.789L97.1942 428.359H95.4077ZM100.224 428.525C99.7506 428.525 99.3222 428.437 98.9393 428.262C98.5564 428.084 98.2529 427.826 98.029 427.488C97.8084 427.151 97.698 426.737 97.698 426.247C97.698 425.825 97.7791 425.478 97.9414 425.205C98.1037 424.932 98.3227 424.717 98.5986 424.558C98.8744 424.399 99.1827 424.279 99.5234 424.197C99.8642 424.116 100.211 424.055 100.565 424.012C101.013 423.961 101.376 423.918 101.656 423.886C101.935 423.85 102.137 423.793 102.264 423.716C102.391 423.638 102.454 423.511 102.454 423.336V423.302C102.454 422.877 102.334 422.547 102.094 422.314C101.857 422.08 101.503 421.963 101.032 421.963C100.542 421.963 100.156 422.072 99.8739 422.289C99.5948 422.503 99.4017 422.742 99.2946 423.005L97.9268 422.693C98.0891 422.239 98.326 421.872 98.6375 421.593C98.9523 421.311 99.3141 421.106 99.723 420.98C100.132 420.85 100.562 420.785 101.013 420.785C101.312 420.785 101.628 420.821 101.962 420.892C102.3 420.96 102.614 421.087 102.907 421.272C103.202 421.457 103.444 421.721 103.632 422.065C103.82 422.406 103.914 422.849 103.914 423.394V428.359H102.493V427.337H102.434C102.34 427.525 102.199 427.71 102.011 427.892C101.823 428.074 101.581 428.225 101.286 428.345C100.99 428.465 100.637 428.525 100.224 428.525ZM100.541 427.357C100.943 427.357 101.287 427.277 101.573 427.118C101.862 426.959 102.081 426.751 102.23 426.495C102.382 426.235 102.459 425.958 102.459 425.663V424.699C102.407 424.751 102.306 424.799 102.157 424.845C102.011 424.887 101.844 424.924 101.656 424.957C101.467 424.986 101.284 425.014 101.105 425.04C100.927 425.062 100.778 425.082 100.658 425.098C100.375 425.134 100.117 425.194 99.8836 425.278C99.6532 425.362 99.4683 425.484 99.3287 425.643C99.1924 425.799 99.1243 426.007 99.1243 426.266C99.1243 426.626 99.2573 426.899 99.5234 427.084C99.7895 427.266 100.129 427.357 100.541 427.357ZM106.237 431.163C106.02 431.163 105.822 431.145 105.643 431.11C105.465 431.077 105.332 431.042 105.244 431.003L105.595 429.81C105.861 429.881 106.098 429.912 106.305 429.902C106.513 429.893 106.696 429.815 106.855 429.669C107.018 429.523 107.161 429.284 107.284 428.953L107.464 428.457L104.728 420.882H106.286L108.18 426.685H108.257L110.151 420.882H111.714L108.632 429.357C108.489 429.747 108.308 430.076 108.087 430.345C107.866 430.618 107.604 430.822 107.298 430.959C106.993 431.095 106.64 431.163 106.237 431.163Z" fill="#5D5D5D"/>
</g>
<g filter="url(#filter3_d_531_24357)">
<path d="M34.2714 471.292C34.2714 466.56 38.1071 462.725 42.8387 462.725H300.783C305.514 462.725 309.35 466.56 309.35 471.292V510.164C309.35 514.896 305.514 518.731 300.783 518.731H42.8387C38.1071 518.731 34.2714 514.896 34.2714 510.164V471.292Z" fill="white" shape-rendering="crispEdges"/>
<path d="M48.5687 500.92H69.1301V480.358H48.5687V500.92Z" fill="white"/>
<path d="M88.5819 484.675V494.645H87.1995L82.1321 487.333H82.0396V494.645H80.5355V484.675H81.9277L86.9999 491.996H87.0924V484.675H88.5819ZM93.5409 494.795C92.84 494.795 92.2283 494.635 91.7058 494.314C91.1833 493.992 90.7777 493.543 90.4889 492.965C90.2 492.388 90.0556 491.713 90.0556 490.94C90.0556 490.165 90.2 489.486 90.4889 488.905C90.7777 488.325 91.1833 487.873 91.7058 487.552C92.2283 487.231 92.84 487.07 93.5409 487.07C94.2419 487.07 94.8536 487.231 95.3761 487.552C95.8986 487.873 96.3042 488.325 96.593 488.905C96.8819 489.486 97.0263 490.165 97.0263 490.94C97.0263 491.713 96.8819 492.388 96.593 492.965C96.3042 493.543 95.8986 493.992 95.3761 494.314C94.8536 494.635 94.2419 494.795 93.5409 494.795ZM93.5458 493.574C94.0001 493.574 94.3766 493.454 94.6751 493.213C94.9737 492.973 95.1944 492.654 95.3372 492.254C95.4832 491.855 95.5562 491.416 95.5562 490.935C95.5562 490.458 95.4832 490.02 95.3372 489.621C95.1944 489.219 94.9737 488.896 94.6751 488.652C94.3766 488.409 94.0001 488.287 93.5458 488.287C93.0882 488.287 92.7086 488.409 92.4068 488.652C92.1082 488.896 91.8859 489.219 91.7399 489.621C91.5971 490.02 91.5257 490.458 91.5257 490.935C91.5257 491.416 91.5971 491.855 91.7399 492.254C91.8859 492.654 92.1082 492.973 92.4068 493.213C92.7086 493.454 93.0882 493.574 93.5458 493.574ZM101.873 487.168V488.336H97.7893V487.168H101.873ZM98.8845 485.376H100.34V492.449C100.34 492.732 100.382 492.944 100.467 493.087C100.551 493.226 100.66 493.322 100.793 493.374C100.929 493.423 101.077 493.447 101.236 493.447C101.352 493.447 101.455 493.439 101.542 493.423C101.63 493.406 101.698 493.394 101.747 493.384L102.01 494.586C101.925 494.619 101.805 494.651 101.649 494.683C101.494 494.719 101.299 494.739 101.065 494.742C100.682 494.748 100.325 494.68 99.9944 494.537C99.6634 494.395 99.3956 494.174 99.1912 493.875C98.9868 493.577 98.8845 493.202 98.8845 492.751V485.376ZM109.71 497.604C109.117 497.604 108.605 497.526 108.177 497.37C107.752 497.215 107.405 497.009 107.135 496.752C106.866 496.496 106.665 496.215 106.532 495.91L107.783 495.394C107.87 495.537 107.987 495.688 108.133 495.847C108.283 496.009 108.484 496.147 108.737 496.261C108.993 496.374 109.323 496.431 109.725 496.431C110.277 496.431 110.733 496.296 111.093 496.027C111.453 495.761 111.633 495.336 111.633 494.752V493.282H111.541C111.453 493.441 111.327 493.617 111.161 493.812C110.999 494.007 110.775 494.176 110.489 494.318C110.204 494.461 109.832 494.533 109.375 494.533C108.784 494.533 108.252 494.395 107.778 494.119C107.307 493.84 106.934 493.429 106.658 492.887C106.386 492.342 106.249 491.672 106.249 490.877C106.249 490.082 106.384 489.4 106.653 488.832C106.926 488.265 107.299 487.83 107.773 487.528C108.247 487.223 108.784 487.07 109.384 487.07C109.848 487.07 110.223 487.148 110.509 487.304C110.794 487.456 111.017 487.635 111.176 487.839C111.338 488.044 111.463 488.224 111.55 488.38H111.658V487.168H113.084V494.81C113.084 495.453 112.935 495.98 112.636 496.392C112.337 496.804 111.933 497.109 111.424 497.307C110.918 497.505 110.346 497.604 109.71 497.604ZM109.696 493.325C110.114 493.325 110.468 493.228 110.757 493.033C111.049 492.835 111.27 492.553 111.419 492.186C111.572 491.816 111.648 491.373 111.648 490.857C111.648 490.354 111.573 489.911 111.424 489.529C111.275 489.146 111.056 488.847 110.767 488.633C110.478 488.415 110.121 488.307 109.696 488.307C109.258 488.307 108.893 488.42 108.601 488.647C108.309 488.871 108.088 489.176 107.939 489.563C107.793 489.949 107.72 490.38 107.72 490.857C107.72 491.347 107.794 491.777 107.943 492.147C108.093 492.517 108.313 492.806 108.605 493.014C108.901 493.222 109.264 493.325 109.696 493.325ZM114.768 494.645V487.168H116.175V488.355H116.253C116.389 487.953 116.629 487.637 116.973 487.406C117.32 487.173 117.713 487.056 118.151 487.056C118.242 487.056 118.349 487.059 118.472 487.065C118.599 487.072 118.698 487.08 118.769 487.09V488.482C118.711 488.466 118.607 488.448 118.458 488.428C118.309 488.406 118.159 488.394 118.01 488.394C117.666 488.394 117.359 488.467 117.09 488.613C116.824 488.756 116.613 488.956 116.457 489.212C116.301 489.465 116.223 489.754 116.223 490.079V494.645H114.768ZM122.716 494.795C121.979 494.795 121.345 494.638 120.813 494.323C120.284 494.005 119.875 493.559 119.586 492.985C119.3 492.407 119.158 491.73 119.158 490.955C119.158 490.189 119.3 489.514 119.586 488.93C119.875 488.346 120.277 487.89 120.793 487.562C121.312 487.234 121.919 487.07 122.614 487.07C123.036 487.07 123.444 487.14 123.84 487.28C124.236 487.419 124.592 487.638 124.906 487.937C125.221 488.235 125.469 488.623 125.651 489.1C125.833 489.574 125.924 490.15 125.924 490.828V491.344H119.98V490.254H124.497C124.497 489.871 124.42 489.532 124.264 489.236C124.108 488.938 123.889 488.703 123.607 488.531C123.328 488.359 123 488.273 122.623 488.273C122.214 488.273 121.858 488.373 121.552 488.574C121.251 488.772 121.017 489.032 120.852 489.353C120.689 489.671 120.608 490.017 120.608 490.39V491.242C120.608 491.742 120.696 492.167 120.871 492.517C121.049 492.868 121.298 493.136 121.616 493.321C121.934 493.502 122.305 493.593 122.73 493.593C123.006 493.593 123.258 493.554 123.485 493.476C123.712 493.395 123.908 493.275 124.074 493.116C124.239 492.957 124.366 492.761 124.454 492.527L125.831 492.775C125.721 493.181 125.523 493.536 125.237 493.841C124.955 494.143 124.6 494.378 124.171 494.547C123.746 494.713 123.261 494.795 122.716 494.795ZM129.447 494.81C128.973 494.81 128.545 494.722 128.162 494.547C127.779 494.369 127.475 494.111 127.251 493.773C127.031 493.436 126.92 493.022 126.92 492.532C126.92 492.11 127.002 491.763 127.164 491.49C127.326 491.218 127.545 491.002 127.821 490.843C128.097 490.684 128.405 490.564 128.746 490.483C129.087 490.401 129.434 490.34 129.788 490.298C130.235 490.246 130.599 490.204 130.878 490.171C131.157 490.135 131.36 490.079 131.486 490.001C131.613 489.923 131.676 489.796 131.676 489.621V489.587C131.676 489.162 131.556 488.832 131.316 488.599C131.079 488.365 130.725 488.248 130.255 488.248C129.765 488.248 129.379 488.357 129.096 488.574C128.817 488.789 128.624 489.027 128.517 489.29L127.149 488.978C127.311 488.524 127.548 488.157 127.86 487.878C128.175 487.596 128.536 487.392 128.945 487.265C129.354 487.135 129.784 487.07 130.235 487.07C130.534 487.07 130.85 487.106 131.185 487.177C131.522 487.246 131.837 487.372 132.129 487.557C132.424 487.742 132.666 488.007 132.854 488.351C133.042 488.691 133.137 489.134 133.137 489.679V494.645H131.715V493.622H131.657C131.563 493.811 131.421 493.995 131.233 494.177C131.045 494.359 130.803 494.51 130.508 494.63C130.213 494.75 129.859 494.81 129.447 494.81ZM129.763 493.642C130.166 493.642 130.51 493.562 130.795 493.403C131.084 493.244 131.303 493.037 131.452 492.78C131.605 492.521 131.681 492.243 131.681 491.948V490.984C131.629 491.036 131.529 491.085 131.379 491.13C131.233 491.172 131.066 491.21 130.878 491.242C130.69 491.271 130.506 491.299 130.328 491.325C130.149 491.347 130 491.367 129.88 491.383C129.598 491.419 129.34 491.479 129.106 491.563C128.876 491.648 128.691 491.769 128.551 491.928C128.415 492.084 128.347 492.292 128.347 492.551C128.347 492.912 128.48 493.184 128.746 493.369C129.012 493.551 129.351 493.642 129.763 493.642ZM138.298 487.168V488.336H134.214V487.168H138.298ZM135.309 485.376H136.764V492.449C136.764 492.732 136.806 492.944 136.891 493.087C136.975 493.226 137.084 493.322 137.217 493.374C137.353 493.423 137.501 493.447 137.66 493.447C137.777 493.447 137.879 493.439 137.967 493.423C138.054 493.406 138.122 493.394 138.171 493.384L138.434 494.586C138.349 494.619 138.229 494.651 138.074 494.683C137.918 494.719 137.723 494.739 137.49 494.742C137.107 494.748 136.75 494.68 136.419 494.537C136.088 494.395 135.82 494.174 135.615 493.875C135.411 493.577 135.309 493.202 135.309 492.751V485.376Z" fill="#5D5D5D"/>
</g>
<g filter="url(#filter4_d_531_24357)">
<path d="M34.2714 537.579C34.2714 532.847 38.1071 529.012 42.8387 529.012H300.783C305.514 529.012 309.35 532.847 309.35 537.579V576.451C309.35 581.183 305.514 585.018 300.783 585.018H42.8387C38.1071 585.018 34.2714 581.183 34.2714 576.451V537.579Z" fill="white" shape-rendering="crispEdges"/>
<path d="M48.5687 567.207H69.1301V546.645H48.5687V567.207Z" fill="white"/>
<path d="M85.9728 553.581C85.9209 553.121 85.7067 552.764 85.3303 552.51C84.9538 552.254 84.48 552.126 83.9089 552.126C83.5 552.126 83.1463 552.191 82.8477 552.321C82.5491 552.447 82.3171 552.622 82.1516 552.846C81.9893 553.067 81.9082 553.318 81.9082 553.601C81.9082 553.838 81.9634 554.042 82.0737 554.214C82.1873 554.386 82.335 554.531 82.5167 554.647C82.7017 554.761 82.8996 554.857 83.1106 554.935C83.3215 555.009 83.5243 555.071 83.719 555.12L84.6926 555.373C85.0106 555.451 85.3367 555.556 85.671 555.689C86.0053 555.822 86.3152 555.997 86.6007 556.215C86.8863 556.432 87.1167 556.702 87.292 557.023C87.4704 557.344 87.5597 557.729 87.5597 558.176C87.5597 558.741 87.4137 559.243 87.1216 559.681C86.8328 560.119 86.4125 560.464 85.8608 560.717C85.3124 560.971 84.6488 561.097 83.8699 561.097C83.1235 561.097 82.4777 560.979 81.9326 560.742C81.3874 560.505 80.9606 560.169 80.6523 559.734C80.344 559.296 80.1737 558.777 80.1412 558.176H81.6502C81.6794 558.537 81.7963 558.837 82.0007 559.077C82.2084 559.314 82.4729 559.491 82.7942 559.608C83.1187 559.721 83.474 559.778 83.8602 559.778C84.2853 559.778 84.6634 559.711 84.9944 559.578C85.3286 559.442 85.5915 559.254 85.783 559.014C85.9744 558.77 86.0702 558.486 86.0702 558.162C86.0702 557.867 85.9858 557.625 85.817 557.437C85.6515 557.248 85.426 557.093 85.1404 556.969C84.8581 556.846 84.5384 556.737 84.1815 556.643L83.0035 556.322C82.2052 556.104 81.5723 555.785 81.105 555.363C80.641 554.941 80.4089 554.383 80.4089 553.688C80.4089 553.114 80.5647 552.613 80.8763 552.184C81.1878 551.756 81.6097 551.423 82.1419 551.186C82.6741 550.946 83.2744 550.826 83.9429 550.826C84.6179 550.826 85.2134 550.945 85.7294 551.182C86.2486 551.418 86.6575 551.745 86.9561 552.16C87.2546 552.572 87.4104 553.046 87.4234 553.581H85.9728ZM92.4627 553.455V554.623H88.3787V553.455H92.4627ZM89.4739 551.663H90.9294V558.736C90.9294 559.019 90.9716 559.231 91.056 559.374C91.1403 559.513 91.249 559.609 91.3821 559.661C91.5184 559.71 91.6661 559.734 91.8251 559.734C91.9419 559.734 92.0441 559.726 92.1317 559.71C92.2194 559.694 92.2875 559.681 92.3362 559.671L92.599 560.873C92.5147 560.906 92.3946 560.938 92.2388 560.971C92.0831 561.006 91.8883 561.026 91.6547 561.029C91.2718 561.035 90.9148 560.967 90.5838 560.825C90.2528 560.682 89.9851 560.461 89.7806 560.163C89.5762 559.864 89.4739 559.489 89.4739 559.038V551.663ZM93.805 560.932V553.455H95.2118V554.642H95.2897C95.426 554.24 95.6661 553.924 96.0101 553.693C96.3574 553.46 96.75 553.343 97.1881 553.343C97.279 553.343 97.3861 553.346 97.5094 553.353C97.636 553.359 97.7349 553.367 97.8063 553.377V554.769C97.7479 554.753 97.6441 554.735 97.4948 554.716C97.3455 554.693 97.1962 554.681 97.047 554.681C96.703 554.681 96.3963 554.754 96.1269 554.9C95.8608 555.043 95.6499 555.243 95.4941 555.499C95.3384 555.752 95.2605 556.041 95.2605 556.366V560.932H93.805ZM103.534 557.831V553.455H104.995V560.932H103.564V559.637H103.486C103.314 560.036 103.038 560.369 102.658 560.635C102.282 560.898 101.813 561.029 101.251 561.029C100.771 561.029 100.346 560.924 99.9761 560.713C99.6094 560.498 99.3206 560.182 99.1097 559.763C98.902 559.345 98.7981 558.827 98.7981 558.211V553.455H100.254V558.035C100.254 558.545 100.395 558.95 100.677 559.252C100.959 559.554 101.326 559.705 101.777 559.705C102.05 559.705 102.321 559.637 102.59 559.501C102.863 559.364 103.088 559.158 103.267 558.882C103.448 558.606 103.538 558.256 103.534 557.831ZM109.818 563.891C109.224 563.891 108.713 563.813 108.284 563.658C107.859 563.502 107.512 563.296 107.242 563.039C106.973 562.783 106.772 562.502 106.639 562.197L107.89 561.681C107.978 561.824 108.094 561.975 108.24 562.134C108.39 562.296 108.591 562.434 108.844 562.548C109.1 562.661 109.43 562.718 109.832 562.718C110.384 562.718 110.84 562.583 111.2 562.314C111.56 562.048 111.74 561.623 111.74 561.039V559.569H111.648C111.56 559.728 111.434 559.905 111.268 560.099C111.106 560.294 110.882 560.463 110.596 560.606C110.311 560.748 109.939 560.82 109.482 560.82C108.891 560.82 108.359 560.682 107.885 560.406C107.414 560.127 107.041 559.716 106.765 559.174C106.493 558.629 106.357 557.959 106.357 557.164C106.357 556.369 106.491 555.687 106.761 555.12C107.033 554.552 107.406 554.117 107.88 553.815C108.354 553.51 108.891 553.357 109.491 553.357C109.955 553.357 110.33 553.435 110.616 553.591C110.901 553.744 111.124 553.922 111.283 554.127C111.445 554.331 111.57 554.511 111.658 554.667H111.765V553.455H113.191V561.097C113.191 561.74 113.042 562.267 112.743 562.679C112.444 563.091 112.04 563.396 111.531 563.594C111.025 563.792 110.454 563.891 109.818 563.891ZM109.803 559.612C110.222 559.612 110.575 559.515 110.864 559.32C111.156 559.122 111.377 558.84 111.526 558.473C111.679 558.103 111.755 557.661 111.755 557.145C111.755 556.642 111.68 556.199 111.531 555.816C111.382 555.433 111.163 555.134 110.874 554.92C110.585 554.703 110.228 554.594 109.803 554.594C109.365 554.594 109 554.707 108.708 554.935C108.416 555.158 108.195 555.464 108.046 555.85C107.9 556.236 107.827 556.667 107.827 557.145C107.827 557.635 107.901 558.065 108.051 558.434C108.2 558.804 108.42 559.093 108.713 559.301C109.008 559.509 109.371 559.612 109.803 559.612ZM118.01 563.891C117.416 563.891 116.905 563.813 116.477 563.658C116.052 563.502 115.704 563.296 115.435 563.039C115.166 562.783 114.964 562.502 114.831 562.197L116.082 561.681C116.17 561.824 116.287 561.975 116.433 562.134C116.582 562.296 116.783 562.434 117.036 562.548C117.293 562.661 117.622 562.718 118.025 562.718C118.576 562.718 119.032 562.583 119.392 562.314C119.753 562.048 119.933 561.623 119.933 561.039V559.569H119.84C119.753 559.728 119.626 559.905 119.461 560.099C119.298 560.294 119.074 560.463 118.789 560.606C118.503 560.748 118.132 560.82 117.674 560.82C117.083 560.82 116.551 560.682 116.077 560.406C115.607 560.127 115.234 559.716 114.958 559.174C114.685 558.629 114.549 557.959 114.549 557.164C114.549 556.369 114.684 555.687 114.953 555.12C115.226 554.552 115.599 554.117 116.073 553.815C116.546 553.51 117.083 553.357 117.684 553.357C118.148 553.357 118.523 553.435 118.808 553.591C119.094 553.744 119.316 553.922 119.475 554.127C119.637 554.331 119.762 554.511 119.85 554.667H119.957V553.455H121.383V561.097C121.383 561.74 121.234 562.267 120.935 562.679C120.637 563.091 120.233 563.396 119.723 563.594C119.217 563.792 118.646 563.891 118.01 563.891ZM117.995 559.612C118.414 559.612 118.768 559.515 119.057 559.32C119.349 559.122 119.569 558.84 119.719 558.473C119.871 558.103 119.947 557.661 119.947 557.145C119.947 556.642 119.873 556.199 119.723 555.816C119.574 555.433 119.355 555.134 119.066 554.92C118.777 554.703 118.42 554.594 117.995 554.594C117.557 554.594 117.192 554.707 116.9 554.935C116.608 555.158 116.387 555.464 116.238 555.85C116.092 556.236 116.019 556.667 116.019 557.145C116.019 557.635 116.094 558.065 116.243 558.434C116.392 558.804 116.613 559.093 116.905 559.301C117.2 559.509 117.564 559.612 117.995 559.612ZM124.523 550.962V560.932H123.068V550.962H124.523ZM126.213 560.932V553.455H127.669V560.932H126.213ZM126.948 552.301C126.695 552.301 126.478 552.217 126.296 552.048C126.118 551.876 126.028 551.672 126.028 551.435C126.028 551.194 126.118 550.99 126.296 550.821C126.478 550.649 126.695 550.563 126.948 550.563C127.202 550.563 127.417 550.649 127.596 550.821C127.778 550.99 127.868 551.194 127.868 551.435C127.868 551.672 127.778 551.876 127.596 552.048C127.417 552.217 127.202 552.301 126.948 552.301ZM130.815 556.492V560.932H129.359V553.455H130.756V554.672H130.849C131.021 554.276 131.29 553.958 131.657 553.718C132.027 553.477 132.492 553.357 133.054 553.357C133.563 553.357 134.009 553.464 134.392 553.679C134.775 553.89 135.072 554.204 135.283 554.623C135.494 555.042 135.6 555.559 135.6 556.176V560.932H134.144V556.351C134.144 555.809 134.003 555.386 133.721 555.081C133.438 554.772 133.051 554.618 132.557 554.618C132.22 554.618 131.92 554.691 131.657 554.837C131.397 554.983 131.191 555.197 131.039 555.48C130.889 555.759 130.815 556.096 130.815 556.492ZM140.419 563.891C139.825 563.891 139.314 563.813 138.885 563.658C138.46 563.502 138.113 563.296 137.844 563.039C137.574 562.783 137.373 562.502 137.24 562.197L138.491 561.681C138.579 561.824 138.696 561.975 138.842 562.134C138.991 562.296 139.192 562.434 139.445 562.548C139.702 562.661 140.031 562.718 140.433 562.718C140.985 562.718 141.441 562.583 141.801 562.314C142.161 562.048 142.341 561.623 142.341 561.039V559.569H142.249C142.161 559.728 142.035 559.905 141.869 560.099C141.707 560.294 141.483 560.463 141.198 560.606C140.912 560.748 140.54 560.82 140.083 560.82C139.492 560.82 138.96 560.682 138.486 560.406C138.016 560.127 137.642 559.716 137.367 559.174C137.094 558.629 136.958 557.959 136.958 557.164C136.958 556.369 137.092 555.687 137.362 555.12C137.634 554.552 138.008 554.117 138.481 553.815C138.955 553.51 139.492 553.357 140.093 553.357C140.557 553.357 140.931 553.435 141.217 553.591C141.503 553.744 141.725 553.922 141.884 554.127C142.046 554.331 142.171 554.511 142.259 554.667H142.366V553.455H143.792V561.097C143.792 561.74 143.643 562.267 143.344 562.679C143.046 563.091 142.642 563.396 142.132 563.594C141.626 563.792 141.055 563.891 140.419 563.891ZM140.404 559.612C140.823 559.612 141.176 559.515 141.465 559.32C141.757 559.122 141.978 558.84 142.127 558.473C142.28 558.103 142.356 557.661 142.356 557.145C142.356 556.642 142.281 556.199 142.132 555.816C141.983 555.433 141.764 555.134 141.475 554.92C141.186 554.703 140.829 554.594 140.404 554.594C139.966 554.594 139.601 554.707 139.309 554.935C139.017 555.158 138.796 555.464 138.647 555.85C138.501 556.236 138.428 556.667 138.428 557.145C138.428 557.635 138.502 558.065 138.652 558.434C138.801 558.804 139.022 559.093 139.314 559.301C139.609 559.509 139.972 559.612 140.404 559.612Z" fill="#5D5D5D"/>
</g>
<g filter="url(#filter5_d_531_24357)">
<path d="M34.2706 605.578C34.2706 601.793 37.3392 598.725 41.1244 598.725H302.495C306.28 598.725 309.349 601.793 309.349 605.578V622.706C309.349 626.491 306.28 629.56 302.495 629.56H41.1245C37.3392 629.56 34.2706 626.491 34.2706 622.706V605.578Z" fill="white" shape-rendering="crispEdges"/>
<path d="M125.665 613.006H124.336C124.285 612.722 124.19 612.472 124.051 612.257C123.912 612.041 123.741 611.858 123.54 611.707C123.338 611.557 123.112 611.443 122.862 611.366C122.615 611.29 122.353 611.251 122.074 611.251C121.572 611.251 121.122 611.378 120.724 611.63C120.33 611.883 120.017 612.254 119.787 612.742C119.56 613.231 119.446 613.827 119.446 614.531C119.446 615.241 119.56 615.84 119.787 616.328C120.017 616.817 120.331 617.186 120.728 617.436C121.126 617.686 121.573 617.811 122.07 617.811C122.346 617.811 122.607 617.774 122.854 617.7C123.104 617.623 123.329 617.511 123.531 617.363C123.733 617.216 123.903 617.036 124.042 616.823C124.184 616.607 124.282 616.36 124.336 616.081L125.665 616.086C125.594 616.514 125.456 616.909 125.252 617.27C125.05 617.628 124.79 617.937 124.472 618.198C124.157 618.457 123.797 618.657 123.391 618.799C122.984 618.941 122.542 619.012 122.062 619.012C121.306 619.012 120.633 618.833 120.043 618.475C119.452 618.115 118.986 617.599 118.646 616.929C118.308 616.259 118.139 615.46 118.139 614.531C118.139 613.6 118.309 612.8 118.65 612.133C118.991 611.463 119.456 610.949 120.047 610.591C120.638 610.231 121.309 610.05 122.062 610.05C122.524 610.05 122.956 610.117 123.356 610.25C123.76 610.381 124.122 610.574 124.443 610.83C124.763 611.082 125.029 611.392 125.239 611.758C125.449 612.122 125.591 612.538 125.665 613.006ZM129.765 619.025C129.151 619.025 128.616 618.884 128.159 618.603C127.702 618.322 127.347 617.929 127.094 617.423C126.841 616.918 126.715 616.327 126.715 615.651C126.715 614.973 126.841 614.379 127.094 613.871C127.347 613.363 127.702 612.968 128.159 612.687C128.616 612.406 129.151 612.265 129.765 612.265C130.378 612.265 130.913 612.406 131.37 612.687C131.827 612.968 132.182 613.363 132.435 613.871C132.688 614.379 132.814 614.973 132.814 615.651C132.814 616.327 132.688 616.918 132.435 617.423C132.182 617.929 131.827 618.322 131.37 618.603C130.913 618.884 130.378 619.025 129.765 619.025ZM129.769 617.956C130.166 617.956 130.496 617.85 130.757 617.64C131.018 617.43 131.211 617.151 131.336 616.801C131.464 616.452 131.528 616.067 131.528 615.647C131.528 615.23 131.464 614.846 131.336 614.497C131.211 614.145 131.018 613.862 130.757 613.649C130.496 613.436 130.166 613.33 129.769 613.33C129.368 613.33 129.036 613.436 128.772 613.649C128.511 613.862 128.316 614.145 128.189 614.497C128.064 614.846 128.001 615.23 128.001 615.647C128.001 616.067 128.064 616.452 128.189 616.801C128.316 617.151 128.511 617.43 128.772 617.64C129.036 617.85 129.368 617.956 129.769 617.956ZM134.107 618.893V612.35H135.329V613.415H135.41C135.547 613.055 135.769 612.773 136.079 612.572C136.388 612.367 136.759 612.265 137.191 612.265C137.628 612.265 137.994 612.367 138.29 612.572C138.588 612.776 138.808 613.057 138.95 613.415H139.018C139.174 613.066 139.422 612.788 139.763 612.58C140.104 612.37 140.51 612.265 140.981 612.265C141.575 612.265 142.059 612.451 142.434 612.823C142.811 613.195 143 613.756 143 614.506V618.893H141.727V614.625C141.727 614.182 141.606 613.861 141.365 613.662C141.123 613.463 140.835 613.364 140.5 613.364C140.086 613.364 139.763 613.492 139.533 613.747C139.303 614 139.188 614.325 139.188 614.723V618.893H137.919V614.544C137.919 614.189 137.808 613.904 137.587 613.688C137.365 613.472 137.077 613.364 136.722 613.364C136.481 613.364 136.258 613.428 136.053 613.556C135.852 613.681 135.689 613.855 135.564 614.08C135.441 614.304 135.38 614.564 135.38 614.859V618.893H134.107ZM144.578 621.346V612.35H145.822V613.411H145.929C146.002 613.275 146.109 613.117 146.248 612.938C146.387 612.759 146.58 612.603 146.827 612.47C147.074 612.333 147.401 612.265 147.807 612.265C148.335 612.265 148.806 612.399 149.221 612.665C149.636 612.932 149.961 613.317 150.196 613.82C150.435 614.322 150.554 614.927 150.554 615.634C150.554 616.341 150.436 616.948 150.201 617.453C149.965 617.956 149.641 618.343 149.23 618.616C148.818 618.885 148.348 619.02 147.82 619.02C147.422 619.02 147.097 618.954 146.844 618.82C146.594 618.687 146.398 618.531 146.257 618.352C146.115 618.173 146.005 618.014 145.929 617.875H145.852V621.346H144.578ZM145.826 615.621C145.826 616.081 145.893 616.485 146.027 616.831C146.16 617.178 146.353 617.449 146.606 617.645C146.858 617.838 147.168 617.934 147.534 617.934C147.915 617.934 148.233 617.833 148.488 617.632C148.744 617.427 148.937 617.151 149.068 616.801C149.201 616.452 149.268 616.059 149.268 615.621C149.268 615.19 149.203 614.802 149.072 614.459C148.944 614.115 148.751 613.844 148.493 613.645C148.237 613.446 147.918 613.347 147.534 613.347C147.165 613.347 146.853 613.442 146.597 613.632C146.345 613.823 146.153 614.088 146.022 614.429C145.892 614.77 145.826 615.167 145.826 615.621ZM153.126 610.17V618.893H151.852V610.17H153.126ZM157.53 619.025C156.885 619.025 156.33 618.887 155.864 618.611C155.402 618.333 155.044 617.943 154.791 617.44C154.541 616.935 154.416 616.343 154.416 615.664C154.416 614.994 154.541 614.403 154.791 613.892C155.044 613.381 155.396 612.982 155.847 612.695C156.302 612.409 156.833 612.265 157.44 612.265C157.809 612.265 158.167 612.326 158.514 612.448C158.86 612.57 159.171 612.762 159.446 613.023C159.722 613.285 159.939 613.624 160.098 614.041C160.257 614.456 160.337 614.96 160.337 615.553V616.005H155.136V615.051H159.089C159.089 614.716 159.021 614.419 158.884 614.161C158.748 613.899 158.556 613.693 158.309 613.543C158.065 613.392 157.778 613.317 157.449 613.317C157.091 613.317 156.779 613.405 156.512 613.581C156.248 613.754 156.043 613.982 155.898 614.263C155.757 614.541 155.686 614.843 155.686 615.17V615.915C155.686 616.353 155.762 616.725 155.916 617.031C156.072 617.338 156.289 617.572 156.567 617.734C156.845 617.893 157.171 617.973 157.543 617.973C157.784 617.973 158.004 617.938 158.203 617.87C158.402 617.799 158.573 617.694 158.718 617.555C158.863 617.416 158.974 617.244 159.05 617.04L160.256 617.257C160.159 617.612 159.986 617.923 159.736 618.19C159.489 618.454 159.178 618.66 158.803 618.807C158.431 618.952 158.007 619.025 157.53 619.025ZM164.675 612.35V613.373H161.101V612.35H164.675ZM162.06 610.783H163.333V616.972C163.333 617.219 163.37 617.405 163.444 617.53C163.518 617.652 163.613 617.735 163.729 617.781C163.848 617.823 163.978 617.845 164.117 617.845C164.219 617.845 164.308 617.838 164.385 617.823C164.462 617.809 164.521 617.798 164.564 617.789L164.794 618.841C164.72 618.87 164.615 618.898 164.479 618.927C164.343 618.958 164.172 618.975 163.968 618.978C163.633 618.983 163.32 618.924 163.031 618.799C162.741 618.674 162.507 618.481 162.328 618.22C162.149 617.958 162.06 617.63 162.06 617.236V610.783ZM168.704 619.025C168.059 619.025 167.504 618.887 167.039 618.611C166.576 618.333 166.218 617.943 165.965 617.44C165.715 616.935 165.59 616.343 165.59 615.664C165.59 614.994 165.715 614.403 165.965 613.892C166.218 613.381 166.57 612.982 167.022 612.695C167.476 612.409 168.007 612.265 168.615 612.265C168.984 612.265 169.342 612.326 169.688 612.448C170.034 612.57 170.345 612.762 170.621 613.023C170.896 613.285 171.113 613.624 171.272 614.041C171.431 614.456 171.511 614.96 171.511 615.553V616.005H166.31V615.051H170.263C170.263 614.716 170.195 614.419 170.058 614.161C169.922 613.899 169.731 613.693 169.483 613.543C169.239 613.392 168.952 613.317 168.623 613.317C168.265 613.317 167.953 613.405 167.686 613.581C167.422 613.754 167.218 613.982 167.073 614.263C166.931 614.541 166.86 614.843 166.86 615.17V615.915C166.86 616.353 166.936 616.725 167.09 617.031C167.246 617.338 167.463 617.572 167.741 617.734C168.02 617.893 168.345 617.973 168.717 617.973C168.958 617.973 169.178 617.938 169.377 617.87C169.576 617.799 169.748 617.694 169.892 617.555C170.037 617.416 170.148 617.244 170.225 617.04L171.43 617.257C171.333 617.612 171.16 617.923 170.91 618.19C170.663 618.454 170.352 618.66 169.978 618.807C169.606 618.952 169.181 619.025 168.704 619.025ZM183.188 613.006H181.859C181.808 612.722 181.713 612.472 181.573 612.257C181.434 612.041 181.264 611.858 181.062 611.707C180.861 611.557 180.635 611.443 180.385 611.366C180.138 611.29 179.875 611.251 179.597 611.251C179.095 611.251 178.645 611.378 178.247 611.63C177.852 611.883 177.54 612.254 177.31 612.742C177.083 613.231 176.969 613.827 176.969 614.531C176.969 615.241 177.083 615.84 177.31 616.328C177.54 616.817 177.854 617.186 178.251 617.436C178.649 617.686 179.096 617.811 179.593 617.811C179.868 617.811 180.13 617.774 180.377 617.7C180.626 617.623 180.852 617.511 181.054 617.363C181.255 617.216 181.426 617.036 181.565 616.823C181.707 616.607 181.805 616.36 181.859 616.081L183.188 616.086C183.117 616.514 182.979 616.909 182.775 617.27C182.573 617.628 182.313 617.937 181.995 618.198C181.68 618.457 181.319 618.657 180.913 618.799C180.507 618.941 180.064 619.012 179.584 619.012C178.829 619.012 178.156 618.833 177.565 618.475C176.975 618.115 176.509 617.599 176.168 616.929C175.831 616.259 175.662 615.46 175.662 614.531C175.662 613.6 175.832 612.8 176.173 612.133C176.513 611.463 176.979 610.949 177.57 610.591C178.16 610.231 178.832 610.05 179.584 610.05C180.047 610.05 180.479 610.117 180.879 610.25C181.282 610.381 181.644 610.574 181.965 610.83C182.286 611.082 182.552 611.392 182.762 611.758C182.972 612.122 183.114 612.538 183.188 613.006ZM185.805 615.008V618.893H184.532V610.17H185.788V613.415H185.869C186.022 613.063 186.257 612.783 186.572 612.576C186.887 612.369 187.299 612.265 187.807 612.265C188.256 612.265 188.647 612.357 188.983 612.542C189.32 612.727 189.582 613.002 189.766 613.368C189.954 613.732 190.047 614.186 190.047 614.731V618.893H188.774V614.885C188.774 614.405 188.65 614.033 188.403 613.769C188.156 613.502 187.813 613.368 187.373 613.368C187.072 613.368 186.802 613.432 186.563 613.56C186.328 613.688 186.142 613.875 186.005 614.122C185.872 614.366 185.805 614.662 185.805 615.008ZM194.438 619.025C193.793 619.025 193.238 618.887 192.772 618.611C192.309 618.333 191.952 617.943 191.699 617.44C191.449 616.935 191.324 616.343 191.324 615.664C191.324 614.994 191.449 614.403 191.699 613.892C191.952 613.381 192.304 612.982 192.755 612.695C193.21 612.409 193.74 612.265 194.348 612.265C194.717 612.265 195.075 612.326 195.421 612.448C195.768 612.57 196.079 612.762 196.354 613.023C196.63 613.285 196.847 613.624 197.006 614.041C197.165 614.456 197.244 614.96 197.244 615.553V616.005H192.044V615.051H195.997C195.997 614.716 195.928 614.419 195.792 614.161C195.656 613.899 195.464 613.693 195.217 613.543C194.973 613.392 194.686 613.317 194.357 613.317C193.999 613.317 193.687 613.405 193.42 613.581C193.156 613.754 192.951 613.982 192.806 614.263C192.664 614.541 192.593 614.843 192.593 615.17V615.915C192.593 616.353 192.67 616.725 192.823 617.031C192.98 617.338 193.197 617.572 193.475 617.734C193.753 617.893 194.078 617.973 194.45 617.973C194.692 617.973 194.912 617.938 195.111 617.87C195.309 617.799 195.481 617.694 195.626 617.555C195.771 617.416 195.881 617.244 195.958 617.04L197.164 617.257C197.067 617.612 196.894 617.923 196.644 618.19C196.397 618.454 196.086 618.66 195.711 618.807C195.339 618.952 194.915 619.025 194.438 619.025ZM201.284 619.025C200.651 619.025 200.106 618.881 199.649 618.594C199.195 618.305 198.845 617.906 198.601 617.398C198.357 616.889 198.235 616.307 198.235 615.651C198.235 614.987 198.36 614.4 198.61 613.892C198.859 613.381 199.212 612.982 199.666 612.695C200.12 612.409 200.655 612.265 201.272 612.265C201.769 612.265 202.212 612.357 202.601 612.542C202.99 612.724 203.303 612.979 203.542 613.309C203.783 613.638 203.927 614.023 203.972 614.463H202.733C202.664 614.156 202.508 613.892 202.264 613.671C202.023 613.449 201.699 613.338 201.293 613.338C200.938 613.338 200.627 613.432 200.36 613.62C200.096 613.804 199.89 614.068 199.743 614.412C199.595 614.753 199.521 615.156 199.521 615.621C199.521 616.098 199.593 616.51 199.738 616.857C199.883 617.203 200.088 617.471 200.352 617.662C200.619 617.852 200.932 617.947 201.293 617.947C201.534 617.947 201.753 617.903 201.949 617.815C202.148 617.724 202.314 617.595 202.447 617.427C202.583 617.26 202.679 617.058 202.733 616.823H203.972C203.927 617.246 203.789 617.623 203.559 617.956C203.329 618.288 203.021 618.549 202.635 618.739C202.251 618.929 201.801 619.025 201.284 619.025ZM206.376 616.673L206.368 615.119H206.589L209.196 612.35H210.721L207.748 615.502H207.548L206.376 616.673ZM205.205 618.893V610.17H206.479V618.893H205.205ZM209.337 618.893L206.994 615.783L207.871 614.893L210.9 618.893H209.337ZM215.162 614.655V615.758H211.295V614.655H215.162ZM216.731 618.893V612.35H218.004V618.893H216.731ZM217.374 611.341C217.152 611.341 216.962 611.267 216.803 611.119C216.647 610.969 216.569 610.79 216.569 610.583C216.569 610.373 216.647 610.194 216.803 610.046C216.962 609.896 217.152 609.82 217.374 609.82C217.595 609.82 217.784 609.896 217.94 610.046C218.099 610.194 218.179 610.373 218.179 610.583C218.179 610.79 218.099 610.969 217.94 611.119C217.784 611.267 217.595 611.341 217.374 611.341ZM220.862 615.008V618.893H219.589V612.35H220.811V613.415H220.892C221.043 613.069 221.278 612.79 221.599 612.58C221.923 612.37 222.33 612.265 222.822 612.265C223.267 612.265 223.658 612.359 223.993 612.546C224.328 612.731 224.588 613.006 224.772 613.373C224.957 613.739 225.049 614.192 225.049 614.731V618.893H223.776V614.885C223.776 614.41 223.652 614.04 223.405 613.773C223.158 613.503 222.819 613.368 222.387 613.368C222.092 613.368 221.829 613.432 221.599 613.56C221.372 613.688 221.192 613.875 221.058 614.122C220.928 614.366 220.862 614.662 220.862 615.008Z" fill="#5D5D5D"/>
</g>
</g>
<defs>
<filter id="filter0_d_531_24357" x="25.7042" y="255.302" width="292.213" height="73.1404" filterUnits="userSpaceOnUse" color-interpolation-filters="sRGB">
<feFlood flood-opacity="0" result="BackgroundImageFix"/>
<feColorMatrix in="SourceAlpha" type="matrix" values="0 0 0 0 0 0 0 0 0 0 0 0 0 0 0 0 0 0 127 0" result="hardAlpha"/>
<feOffset/>
<feGaussianBlur stdDeviation="4.28363"/>
<feComposite in2="hardAlpha" operator="out"/>
<feColorMatrix type="matrix" values="0 0 0 0 0 0 0 0 0 0 0 0 0 0 0 0 0 0 0.15 0"/>
<feBlend mode="normal" in2="BackgroundImageFix" result="effect1_dropShadow_531_24357"/>
<feBlend mode="normal" in="SourceGraphic" in2="effect1_dropShadow_531_24357" result="shape"/>
</filter>
<filter id="filter1_d_531_24357" x="25.7042" y="321.587" width="292.213" height="73.1404" filterUnits="userSpaceOnUse" color-interpolation-filters="sRGB">
<feFlood flood-opacity="0" result="BackgroundImageFix"/>
<feColorMatrix in="SourceAlpha" type="matrix" values="0 0 0 0 0 0 0 0 0 0 0 0 0 0 0 0 0 0 127 0" result="hardAlpha"/>
<feOffset/>
<feGaussianBlur stdDeviation="4.28363"/>
<feComposite in2="hardAlpha" operator="out"/>
<feColorMatrix type="matrix" values="0 0 0 0 0 0 0 0 0 0 0 0 0 0 0 0 0 0 0.15 0"/>
<feBlend mode="normal" in2="BackgroundImageFix" result="effect1_dropShadow_531_24357"/>
<feBlend mode="normal" in="SourceGraphic" in2="effect1_dropShadow_531_24357" result="shape"/>
</filter>
<filter id="filter2_d_531_24357" x="25.7042" y="387.872" width="292.213" height="73.1404" filterUnits="userSpaceOnUse" color-interpolation-filters="sRGB">
<feFlood flood-opacity="0" result="BackgroundImageFix"/>
<feColorMatrix in="SourceAlpha" type="matrix" values="0 0 0 0 0 0 0 0 0 0 0 0 0 0 0 0 0 0 127 0" result="hardAlpha"/>
<feOffset/>
<feGaussianBlur stdDeviation="4.28363"/>
<feComposite in2="hardAlpha" operator="out"/>
<feColorMatrix type="matrix" values="0 0 0 0 0 0 0 0 0 0 0 0 0 0 0 0 0 0 0.15 0"/>
<feBlend mode="normal" in2="BackgroundImageFix" result="effect1_dropShadow_531_24357"/>
<feBlend mode="normal" in="SourceGraphic" in2="effect1_dropShadow_531_24357" result="shape"/>
</filter>
<filter id="filter3_d_531_24357" x="25.7042" y="454.157" width="292.213" height="73.1404" filterUnits="userSpaceOnUse" color-interpolation-filters="sRGB">
<feFlood flood-opacity="0" result="BackgroundImageFix"/>
<feColorMatrix in="SourceAlpha" type="matrix" values="0 0 0 0 0 0 0 0 0 0 0 0 0 0 0 0 0 0 127 0" result="hardAlpha"/>
<feOffset/>
<feGaussianBlur stdDeviation="4.28363"/>
<feComposite in2="hardAlpha" operator="out"/>
<feColorMatrix type="matrix" values="0 0 0 0 0 0 0 0 0 0 0 0 0 0 0 0 0 0 0.15 0"/>
<feBlend mode="normal" in2="BackgroundImageFix" result="effect1_dropShadow_531_24357"/>
<feBlend mode="normal" in="SourceGraphic" in2="effect1_dropShadow_531_24357" result="shape"/>
</filter>
<filter id="filter4_d_531_24357" x="25.7042" y="520.444" width="292.213" height="73.1404" filterUnits="userSpaceOnUse" color-interpolation-filters="sRGB">
<feFlood flood-opacity="0" result="BackgroundImageFix"/>
<feColorMatrix in="SourceAlpha" type="matrix" values="0 0 0 0 0 0 0 0 0 0 0 0 0 0 0 0 0 0 127 0" result="hardAlpha"/>
<feOffset/>
<feGaussianBlur stdDeviation="4.28363"/>
<feComposite in2="hardAlpha" operator="out"/>
<feColorMatrix type="matrix" values="0 0 0 0 0 0 0 0 0 0 0 0 0 0 0 0 0 0 0.15 0"/>
<feBlend mode="normal" in2="BackgroundImageFix" result="effect1_dropShadow_531_24357"/>
<feBlend mode="normal" in="SourceGraphic" in2="effect1_dropShadow_531_24357" result="shape"/>
</filter>
<filter id="filter5_d_531_24357" x="25.7034" y="590.157" width="292.213" height="47.9705" filterUnits="userSpaceOnUse" color-interpolation-filters="sRGB">
<feFlood flood-opacity="0" result="BackgroundImageFix"/>
<feColorMatrix in="SourceAlpha" type="matrix" values="0 0 0 0 0 0 0 0 0 0 0 0 0 0 0 0 0 0 127 0" result="hardAlpha"/>
<feOffset/>
<feGaussianBlur stdDeviation="4.28363"/>
<feComposite in2="hardAlpha" operator="out"/>
<feColorMatrix type="matrix" values="0 0 0 0 0 0 0 0 0 0 0 0 0 0 0 0 0 0 0.15 0"/>
<feBlend mode="normal" in2="BackgroundImageFix" result="effect1_dropShadow_531_24357"/>
<feBlend mode="normal" in="SourceGraphic" in2="effect1_dropShadow_531_24357" result="shape"/>
</filter>
<clipPath id="clip0_531_24357">
<rect width="344.404" height="749.635" rx="22.8541" fill="white"/>
</clipPath>
</defs>
</svg>
