<svg width="32" height="39" viewBox="0 0 32 39" fill="none" xmlns="http://www.w3.org/2000/svg">
<path d="M16.6025 19.9245C16.8034 19.7222 16.9038 19.4715 16.9038 19.1724V9.28715C16.9038 8.98798 16.8027 8.73797 16.6004 8.53712C16.3982 8.33627 16.1475 8.23515 15.8483 8.23374C15.5491 8.23234 15.2991 8.33346 15.0983 8.53712C14.8974 8.74078 14.797 8.99079 14.797 9.28715V19.1724C14.797 19.4715 14.8981 19.7215 15.1004 19.9224C15.3026 20.1232 15.5533 20.2244 15.8525 20.2258C16.1517 20.2272 16.4017 20.1281 16.6025 19.9245ZM15.8504 26.4662C16.2184 26.4662 16.5267 26.3419 16.7753 26.0933C17.0225 25.8446 17.1461 25.5363 17.1461 25.1684C17.1461 24.8004 17.0218 24.4928 16.7732 24.2456C16.5246 23.9984 16.217 23.8741 15.8504 23.8727C15.4838 23.8713 15.1762 23.9956 14.9276 24.2456C14.679 24.4956 14.5547 24.8032 14.5547 25.1684C14.5547 25.5335 14.679 25.8418 14.9276 26.0933C15.1762 26.3447 15.4838 26.469 15.8504 26.4662ZM15.8504 36.0353C19.8112 32.5886 22.942 29.0835 25.2426 25.5202C27.5432 21.9569 28.6936 18.8739 28.6936 16.2713C28.6936 12.4172 27.4737 9.23589 25.034 6.72737C22.5915 4.22025 19.5303 2.96669 15.8504 2.96669C12.1705 2.96669 9.10928 4.22025 6.66677 6.72737C4.22426 9.23448 3.00442 12.4158 3.00722 16.2713C3.00722 18.8725 4.15755 21.9555 6.45819 25.5202C8.75884 29.0849 11.8896 32.59 15.8504 36.0353ZM14.8602 37.725C14.5315 37.6169 14.2281 37.4413 13.95 37.1983C12.4514 35.8204 10.9317 34.286 9.39089 32.5949C7.85151 30.9052 6.45398 29.1545 5.19832 27.3426C3.94265 25.5307 2.91172 23.6816 2.10551 21.7953C1.2993 19.909 0.897596 18.0677 0.900405 16.2713C0.900405 11.8146 2.3513 8.13893 5.25309 5.24416C8.15629 2.34799 11.6887 0.899902 15.8504 0.899902C20.0121 0.899902 23.5445 2.34799 26.4477 5.24416C29.3495 8.13893 30.8004 11.8146 30.8004 16.2713C30.8004 18.0677 30.3987 19.9027 29.5953 21.7764C28.7919 23.6486 27.768 25.497 26.5235 27.3215C25.2805 29.1474 23.8893 30.8989 22.3499 32.5759C20.8106 34.253 19.2901 35.7804 17.7887 37.1583C17.5176 37.4013 17.2086 37.5838 16.8617 37.706C16.5147 37.8282 16.177 37.8886 15.8483 37.8872C15.5196 37.8858 15.1917 37.8317 14.8602 37.725Z" fill="white" stroke="white" stroke-width="1.8"/>
</svg>
