<svg width="33" height="35" viewBox="0 0 33 35" fill="none" xmlns="http://www.w3.org/2000/svg">
<path d="M16.3809 6.78086C17.7031 6.78086 18.9475 7.03086 20.1142 7.53086C21.2809 8.03086 22.2975 8.71975 23.1642 9.59753C24.0309 10.4753 24.7142 11.492 25.2142 12.6475C25.7142 13.8031 25.9697 15.0475 25.9809 16.3809C25.9809 17.0809 25.9364 17.7364 25.8475 18.3475C25.7586 18.9586 25.6197 19.542 25.4309 20.0975C25.242 20.6531 24.9975 21.2031 24.6975 21.7475C24.3975 22.292 24.042 22.8475 23.6309 23.4142C23.3086 23.8586 23.0253 24.2586 22.7809 24.6142C22.5364 24.9697 22.3364 25.3253 22.1809 25.6809C22.0253 26.0364 21.9086 26.4253 21.8309 26.8475C21.7531 27.2697 21.7142 27.7642 21.7142 28.3309V31.3142C21.7142 31.7586 21.6309 32.1753 21.4642 32.5642C21.2975 32.9531 21.0697 33.292 20.7809 33.5809C20.492 33.8697 20.1531 34.0975 19.7642 34.2642C19.3753 34.4309 18.9586 34.5142 18.5142 34.5142H14.2475C13.8031 34.5142 13.3864 34.4309 12.9975 34.2642C12.6086 34.0975 12.2697 33.8697 11.9809 33.5809C11.692 33.292 11.4642 32.9531 11.2975 32.5642C11.1309 32.1753 11.0475 31.7586 11.0475 31.3142V28.3142C11.0475 27.7475 11.0086 27.2586 10.9309 26.8475C10.8531 26.4364 10.7364 26.0531 10.5809 25.6975C10.4253 25.342 10.2253 24.9809 9.98086 24.6142C9.73642 24.2475 9.45308 23.8475 9.13086 23.4142C8.71975 22.8475 8.36975 22.2975 8.08086 21.7642C7.79197 21.2309 7.54753 20.6809 7.34753 20.1142C7.14753 19.5475 7.00308 18.9586 6.91419 18.3475C6.8253 17.7364 6.78086 17.0809 6.78086 16.3809C6.78086 15.0586 7.03086 13.8142 7.53086 12.6475C8.03086 11.4809 8.71975 10.4642 9.59753 9.59753C10.4753 8.73086 11.492 8.04753 12.6475 7.54753C13.8031 7.04753 15.0475 6.79197 16.3809 6.78086ZM19.5809 31.3142V30.2475H13.1809V31.3142C13.1809 31.6031 13.2864 31.8531 13.4975 32.0642C13.7086 32.2753 13.9586 32.3809 14.2475 32.3809H18.5142C18.8031 32.3809 19.0531 32.2753 19.2642 32.0642C19.4753 31.8531 19.5809 31.6031 19.5809 31.3142ZM23.8475 16.3809C23.8475 15.3475 23.6531 14.3809 23.2642 13.4809C22.8753 12.5809 22.342 11.7864 21.6642 11.0975C20.9864 10.4086 20.1975 9.8753 19.2975 9.49753C18.3975 9.11975 17.4253 8.9253 16.3809 8.91419C15.3475 8.91419 14.3809 9.10864 13.4809 9.49753C12.5809 9.88641 11.7864 10.4197 11.0975 11.0975C10.4086 11.7753 9.8753 12.5642 9.49753 13.4642C9.11975 14.3642 8.9253 15.3364 8.91419 16.3809C8.91419 17.3697 9.01419 18.2197 9.21419 18.9309C9.41419 19.642 9.6753 20.2753 9.99753 20.8309C10.3197 21.3864 10.6586 21.9086 11.0142 22.3975C11.3697 22.8864 11.7086 23.3975 12.0309 23.9309C12.3531 24.4642 12.6197 25.0642 12.8309 25.7309C13.042 26.3975 13.1586 27.192 13.1809 28.1142H19.5809C19.592 27.192 19.7031 26.4031 19.9142 25.7475C20.1253 25.092 20.392 24.492 20.7142 23.9475C21.0364 23.4031 21.3753 22.892 21.7309 22.4142C22.0864 21.9364 22.4253 21.4142 22.7475 20.8475C23.0697 20.2809 23.3309 19.642 23.5309 18.9309C23.7309 18.2197 23.8364 17.3697 23.8475 16.3809ZM16.3809 4.64753C16.092 4.64753 15.842 4.54197 15.6309 4.33086C15.4197 4.11975 15.3142 3.86975 15.3142 3.58086V1.44753C15.3142 1.15864 15.4197 0.908637 15.6309 0.697526C15.842 0.486415 16.092 0.380859 16.3809 0.380859C16.6697 0.380859 16.9197 0.486415 17.1309 0.697526C17.342 0.908637 17.4475 1.15864 17.4475 1.44753V3.58086C17.4475 3.86975 17.342 4.11975 17.1309 4.33086C16.9197 4.54197 16.6697 4.64753 16.3809 4.64753ZM3.58086 15.8475H1.44753C1.15864 15.8475 0.908637 15.742 0.697526 15.5309C0.486415 15.3197 0.380859 15.0697 0.380859 14.7809C0.380859 14.492 0.486415 14.242 0.697526 14.0309C0.908637 13.8197 1.15864 13.7142 1.44753 13.7142H3.58086C3.86975 13.7142 4.11975 13.8197 4.33086 14.0309C4.54197 14.242 4.64753 14.492 4.64753 14.7809C4.64753 15.0697 4.54197 15.3197 4.33086 15.5309C4.11975 15.742 3.86975 15.8475 3.58086 15.8475ZM4.46419 20.1975C4.75308 20.1975 5.00308 20.3031 5.21419 20.5142C5.4253 20.7253 5.53086 20.9809 5.53086 21.2809C5.53086 21.5031 5.46975 21.6975 5.34753 21.8642C5.2253 22.0309 5.05864 22.1642 4.84753 22.2642C4.7253 22.3197 4.55864 22.392 4.34753 22.4809C4.13642 22.5697 3.90864 22.6642 3.66419 22.7642C3.41975 22.8642 3.19753 22.9475 2.99753 23.0142C2.79753 23.0809 2.61975 23.1197 2.46419 23.1309C2.1753 23.1309 1.9253 23.0253 1.71419 22.8142C1.50308 22.6031 1.39753 22.3475 1.39753 22.0475C1.39753 21.8253 1.45864 21.6309 1.58086 21.4642C1.70308 21.2975 1.86975 21.1642 2.08086 21.0642C2.20308 21.0197 2.36975 20.9475 2.58086 20.8475C2.79197 20.7475 3.01975 20.6531 3.26419 20.5642C3.50864 20.4753 3.73086 20.392 3.93086 20.3142C4.13086 20.2364 4.30864 20.1975 4.46419 20.1975ZM6.99753 9.44753C6.99753 9.73641 6.89197 9.98641 6.68086 10.1975C6.46975 10.4086 6.21975 10.5142 5.93086 10.5142C5.73086 10.5142 5.54753 10.4642 5.38086 10.3642L3.56419 9.24753C3.40864 9.14753 3.28642 9.01975 3.19753 8.86419C3.10864 8.70864 3.05864 8.53086 3.04753 8.33086C3.04753 8.04197 3.15308 7.79197 3.36419 7.58086C3.5753 7.36975 3.8253 7.26419 4.11419 7.26419C4.29197 7.26419 4.4753 7.31975 4.66419 7.43086L6.49753 8.53086C6.65308 8.61975 6.7753 8.74753 6.86419 8.91419C6.95308 9.08086 6.99753 9.25864 6.99753 9.44753ZM8.38086 3.31419C8.38086 3.0253 8.48642 2.7753 8.69753 2.56419C8.90864 2.35308 9.15864 2.24753 9.44753 2.24753C9.63642 2.24753 9.81419 2.29753 9.98086 2.39753C10.1475 2.49753 10.2809 2.63086 10.3809 2.79753L11.4142 4.66419C11.5031 4.81975 11.5475 4.98641 11.5475 5.16419C11.5475 5.46419 11.442 5.71975 11.2309 5.93086C11.0197 6.14197 10.7697 6.24753 10.4809 6.24753C10.292 6.24753 10.1142 6.19753 9.94753 6.09753C9.78086 5.99753 9.64753 5.86419 9.54753 5.69753L8.51419 3.83086C8.4253 3.6753 8.38086 3.50308 8.38086 3.31419ZM31.3142 13.7142C31.6031 13.7142 31.8531 13.8197 32.0642 14.0309C32.2753 14.242 32.3809 14.492 32.3809 14.7809C32.3809 15.0697 32.2753 15.3197 32.0642 15.5309C31.8531 15.742 31.6031 15.8475 31.3142 15.8475H29.1809C28.892 15.8475 28.642 15.742 28.4309 15.5309C28.2197 15.3197 28.1142 15.0697 28.1142 14.7809C28.1142 14.492 28.2197 14.242 28.4309 14.0309C28.642 13.8197 28.892 13.7142 29.1809 13.7142H31.3142ZM31.3475 22.0642C31.3475 22.3531 31.242 22.6031 31.0309 22.8142C30.8197 23.0253 30.5697 23.1309 30.2809 23.1309C30.1586 23.1309 29.992 23.0975 29.7809 23.0309C29.5697 22.9642 29.342 22.8753 29.0975 22.7642C28.8531 22.6531 28.6309 22.5586 28.4309 22.4809C28.2309 22.4031 28.0586 22.3253 27.9142 22.2475C27.7142 22.1586 27.5531 22.0253 27.4309 21.8475C27.3086 21.6697 27.242 21.4697 27.2309 21.2475C27.2309 20.9475 27.3364 20.6975 27.5475 20.4975C27.7586 20.2975 28.0142 20.192 28.3142 20.1809C28.4475 20.1809 28.6197 20.2197 28.8309 20.2975C29.042 20.3753 29.2642 20.4642 29.4975 20.5642C29.7309 20.6642 29.9531 20.7642 30.1642 20.8642C30.3753 20.9642 30.5475 21.0364 30.6809 21.0809C30.8809 21.1697 31.042 21.2975 31.1642 21.4642C31.2864 21.6309 31.3475 21.8309 31.3475 22.0642ZM26.8309 10.5142C26.542 10.5142 26.292 10.4086 26.0809 10.1975C25.8697 9.98641 25.7642 9.73641 25.7642 9.44753C25.7642 9.25864 25.8086 9.08086 25.8975 8.91419C25.9864 8.74753 26.1086 8.61975 26.2642 8.53086L28.0975 7.43086C28.2864 7.31975 28.4697 7.26419 28.6475 7.26419C28.9364 7.26419 29.1864 7.36975 29.3975 7.58086C29.6086 7.79197 29.7142 8.04197 29.7142 8.33086C29.7142 8.51975 29.6697 8.69197 29.5809 8.84753C29.492 9.00308 29.3642 9.13641 29.1975 9.24753L27.3809 10.3642C27.2142 10.4642 27.0309 10.5142 26.8309 10.5142ZM21.2142 5.16419C21.2142 4.98641 21.2586 4.81975 21.3475 4.66419L22.3809 2.79753C22.4697 2.63086 22.5975 2.49753 22.7642 2.39753C22.9309 2.29753 23.1142 2.24753 23.3142 2.24753C23.6031 2.24753 23.8531 2.35308 24.0642 2.56419C24.2753 2.7753 24.3809 3.0253 24.3809 3.31419C24.3809 3.50308 24.3364 3.6753 24.2475 3.83086L23.2142 5.69753C23.1253 5.86419 22.9975 5.99753 22.8309 6.09753C22.6642 6.19753 22.4809 6.24753 22.2809 6.24753C21.992 6.24753 21.742 6.14197 21.5309 5.93086C21.3197 5.71975 21.2142 5.46419 21.2142 5.16419Z" fill="#6F7142" stroke="#6F7142" stroke-width="0.761905"/>
</svg>
