<svg preserveAspectRatio="none" width="100%" height="100%" overflow="visible" style="display: block;" viewBox="0 0 29.0857 18.9344" fill="none" xmlns="http://www.w3.org/2000/svg">
<g id="Eye">
<path id="Vector" d="M14.5429 0.962362C23.7563 0.962362 28.0097 9.4672 28.0097 9.4672C28.0097 9.4672 23.7563 17.972 14.5429 17.972C5.32946 17.972 1.07601 9.4672 1.07601 9.4672C1.07601 9.4672 5.32946 0.962362 14.5429 0.962362Z" stroke="var(--stroke-0, white)" stroke-width="1.92472" stroke-linecap="round"/>
<path id="Vector_2" d="M23.5612 9.46544C23.5736 10.0173 23.4756 10.566 23.2729 11.0794C23.0703 11.5928 22.7671 12.0605 22.3812 12.4552C21.9953 12.8498 21.5345 13.1633 21.0257 13.3774C20.517 13.5915 19.9706 13.7017 19.4186 13.7017C18.8667 13.7017 18.3203 13.5915 17.8115 13.3774C17.3028 13.1633 16.8419 12.8498 16.4561 12.4552C16.0702 12.0605 15.767 11.5928 15.5643 11.0794C15.3617 10.566 15.2637 10.0173 15.276 9.46544C15.276 8.36648 15.7126 7.31253 16.4897 6.53544C17.2667 5.75836 18.3207 5.3218 19.4197 5.3218C20.5186 5.3218 21.5726 5.75836 22.3497 6.53544C23.1267 7.31253 23.5633 8.36648 23.5633 9.46544H23.5612Z" stroke="var(--stroke-0, white)" stroke-width="1.92472" stroke-linecap="round"/>
</g>
</svg>
