<svg preserveAspectRatio="none" width="100%" height="100%" overflow="visible" style="display: block;" viewBox="0 0 29.0857 18.9344" fill="none" xmlns="http://www.w3.org/2000/svg">
<g id="Eye">
<path id="Vector" d="M14.5429 0.962362C23.7563 0.962362 28.0097 9.4672 28.0097 9.4672C28.0097 9.4672 23.7563 17.972 14.5429 17.972C5.32946 17.972 1.07601 9.4672 1.07601 9.4672C1.07601 9.4672 5.32946 0.962362 14.5429 0.962362Z" stroke="var(--stroke-0, white)" stroke-width="1.92472" stroke-linecap="round"/>
<path id="Vector_2" d="M13.5612 9.46544C13.5736 10.0173 13.4756 10.566 13.2729 11.0794C13.0703 11.5928 12.7671 12.0605 12.3812 12.4552C11.9953 12.8498 11.5345 13.1633 11.0257 13.3774C10.517 13.5915 9.97058 13.7017 9.41863 13.7017C8.86668 13.7017 8.32029 13.5915 7.81155 13.3774C7.3028 13.1633 6.84195 12.8498 6.45605 12.4552C6.07015 12.0605 5.76698 11.5928 5.56434 11.0794C5.3617 10.566 5.26368 10.0173 5.27602 9.46544C5.27602 8.36648 5.71258 7.31253 6.48966 6.53544C7.26675 5.75836 8.3207 5.3218 9.41966 5.3218C10.5186 5.3218 11.5726 5.75836 12.3497 6.53544C13.1267 7.31253 13.5633 8.36648 13.5633 9.46544H13.5612Z" stroke="var(--stroke-0, white)" stroke-width="1.92472" stroke-linecap="round"/>
</g>
</svg>
