<svg preserveAspectRatio="none" width="100%" height="100%" overflow="visible" style="display: block;" viewBox="0 0 29.0857 18.9344" fill="none" xmlns="http://www.w3.org/2000/svg">
<g id="Eye">
<path id="Vector" d="M14.5429 0.962362C23.7563 0.962362 28.0097 9.4672 28.0097 9.4672C28.0097 9.4672 23.7563 17.972 14.5429 17.972C5.32946 17.972 1.07601 9.4672 1.07601 9.4672C1.07601 9.4672 5.32946 0.962362 14.5429 0.962362Z" stroke="var(--stroke-0, white)" stroke-width="1.92472" stroke-linecap="round"/>
<path id="Vector_2" d="M18.5612 9.46544C18.5736 10.0173 18.4756 10.566 18.2729 11.0794C18.0703 11.5928 17.7671 12.0605 17.3812 12.4552C16.9953 12.8498 16.5345 13.1633 16.0257 13.3774C15.517 13.5915 14.9706 13.7017 14.4186 13.7017C13.8667 13.7017 13.3203 13.5915 12.8115 13.3774C12.3028 13.1633 11.8419 12.8498 11.4561 12.4552C11.0702 12.0605 10.767 11.5928 10.5643 11.0794C10.3617 10.566 10.2637 10.0173 10.276 9.46544C10.276 8.36648 10.7126 7.31253 11.4897 6.53544C12.2667 5.75836 13.3207 5.3218 14.4197 5.3218C15.5186 5.3218 16.5726 5.75836 17.3497 6.53544C18.1267 7.31253 18.5633 8.36648 18.5633 9.46544H18.5612Z" stroke="var(--stroke-0, white)" stroke-width="1.92472" stroke-linecap="round"/>
</g>
</svg>
