<svg preserveAspectRatio="none" width="100%" height="100%" overflow="visible" style="display: block;" viewBox="0 0 15.3931 18.9331" fill="none" xmlns="http://www.w3.org/2000/svg">
<g id="Apple logo">
<path id="&#239;&#163;&#191;" d="M11.1572 4.57764C11.3363 4.57764 11.6414 4.60612 12.0728 4.66309C12.5041 4.72005 12.9761 4.88281 13.4888 5.15137C14.0096 5.41178 14.4816 5.84717 14.9048 6.45752C14.8804 6.48193 14.7624 6.57145 14.5508 6.72607C14.3392 6.87256 14.1032 7.09229 13.8428 7.38525C13.5824 7.67008 13.3545 8.0363 13.1592 8.48389C12.9639 8.92334 12.8662 9.44824 12.8662 10.0586C12.8662 10.7585 12.9883 11.3525 13.2324 11.8408C13.4847 12.3291 13.7736 12.7238 14.0991 13.0249C14.4328 13.3179 14.7257 13.5335 14.978 13.6719C15.2384 13.8102 15.3768 13.8835 15.3931 13.8916C15.3849 13.9242 15.2791 14.2131 15.0757 14.7583C14.8804 15.3035 14.5549 15.9098 14.0991 16.5771C13.7004 17.1549 13.269 17.688 12.8052 18.1763C12.3494 18.6646 11.8001 18.9087 11.1572 18.9087C10.7259 18.9087 10.3719 18.8477 10.0952 18.7256C9.81852 18.5954 9.53369 18.4692 9.24072 18.3472C8.94775 18.217 8.55306 18.1519 8.05664 18.1519C7.5765 18.1519 7.17367 18.217 6.84814 18.3472C6.53076 18.4774 6.22559 18.6076 5.93262 18.7378C5.64779 18.868 5.31006 18.9331 4.91943 18.9331C4.32536 18.9331 3.80452 18.6971 3.35693 18.2251C2.90934 17.7531 2.44954 17.1875 1.97754 16.5283C1.43229 15.7471 0.964355 14.7949 0.57373 13.6719C0.191243 12.5407 0 11.4014 0 10.2539C0 9.02507 0.231934 7.99561 0.695801 7.16553C1.15967 6.32731 1.75374 5.69661 2.47803 5.27344C3.21045 4.84212 3.96729 4.62646 4.74854 4.62646C5.16357 4.62646 5.5542 4.69564 5.92041 4.83398C6.28662 4.96419 6.62842 5.09847 6.9458 5.23682C7.27132 5.37516 7.56429 5.44434 7.82471 5.44434C8.07699 5.44434 8.36995 5.37109 8.70361 5.22461C9.03727 5.07812 9.41162 4.93571 9.82666 4.79736C10.2417 4.65088 10.6852 4.57764 11.1572 4.57764ZM10.4858 3.02734C10.1685 3.40983 9.76969 3.73128 9.28955 3.9917C8.80941 4.24398 8.35368 4.37012 7.92236 4.37012C7.83285 4.37012 7.7474 4.36198 7.66602 4.3457C7.65788 4.32129 7.64974 4.27653 7.6416 4.21143C7.63346 4.14632 7.62939 4.07715 7.62939 4.00391C7.62939 3.51562 7.73519 3.04362 7.94678 2.58789C8.15837 2.12402 8.39844 1.74154 8.66699 1.44043C9.00879 1.03353 9.4401 0.695801 9.96094 0.427246C10.4818 0.158691 10.9782 0.016276 11.4502 0C11.4746 0.105794 11.4868 0.231934 11.4868 0.378418C11.4868 0.866699 11.3932 1.34277 11.2061 1.80664C11.0189 2.26237 10.7788 2.66927 10.4858 3.02734Z" fill="var(--fill-0, white)"/>
</g>
</svg>
