<svg preserveAspectRatio="none" width="100%" height="100%" overflow="visible" style="display: block;" viewBox="0 0 18.5793 19.242" fill="none" xmlns="http://www.w3.org/2000/svg">
<g id="Group">
<path id="Vector" opacity="0.987" fill-rule="evenodd" clip-rule="evenodd" d="M8.19396 0.0835483C9.19083 -0.0278267 9.78071 -0.0278267 10.8518 0.0835483C12.7479 0.364179 14.5055 1.24059 15.8706 2.58605C14.9481 3.45798 14.0378 4.34265 13.1398 5.2398C11.4202 3.7823 9.50067 3.44588 7.38133 4.23055C5.82667 4.94555 4.74408 6.10422 4.13358 7.70655C3.13594 6.96382 2.15129 6.20378 1.18008 5.4268C1.11259 5.39127 1.0355 5.37826 0.960083 5.38967C2.50283 2.41509 4.91367 0.645923 8.19258 0.0821733" fill="var(--fill-0, #F44336)"/>
<path id="Vector_2" opacity="0.997" fill-rule="evenodd" clip-rule="evenodd" d="M0.957347 5.38968C1.03526 5.37776 1.10906 5.39013 1.17872 5.4268C2.14993 6.20378 3.13458 6.96382 4.13222 7.70655C3.97523 8.33088 3.87627 8.96838 3.8366 9.61092C3.87051 10.2324 3.96906 10.8425 4.13222 11.441L1.0316 13.9092C-0.318653 11.0877 -0.343403 8.24784 0.957347 5.38968Z" fill="var(--fill-0, #FFC107)"/>
<path id="Vector_3" opacity="0.999" fill-rule="evenodd" clip-rule="evenodd" d="M15.7234 16.8984C14.758 16.047 13.7473 15.2483 12.6957 14.5059C13.7499 13.7616 14.3897 12.7404 14.6152 11.4424H9.44931V7.85504C12.4285 7.83029 15.4063 7.8555 18.3827 7.93066C18.9474 10.9969 18.2951 13.7616 16.4261 16.2247C16.2038 16.4609 15.9684 16.6858 15.7234 16.8984Z" fill="var(--fill-0, #448AFF)"/>
<path id="Vector_4" opacity="0.993" fill-rule="evenodd" clip-rule="evenodd" d="M4.1322 11.4425C5.2597 14.2447 7.32678 15.5528 10.3334 15.3667C11.1775 15.269 11.9867 14.9742 12.6957 14.506C13.748 15.2503 14.7573 16.0478 15.7234 16.8985C14.1926 18.2741 12.2407 19.0903 10.1863 19.214C9.71957 19.2513 9.25058 19.2513 8.78382 19.214C5.28399 18.8015 2.69991 17.0332 1.03157 13.9092L4.1322 11.4425Z" fill="var(--fill-0, #43A047)"/>
</g>
</svg>
